<svg xmlns="http://www.w3.org/2000/svg" width="900" height="1200" viewBox="0 0 900 1200" role="img" aria-label="Default novel cover">
  <defs>
    <linearGradient id="bg" x1="0" y1="0" x2="1" y2="1">
      <stop offset="0%" stop-color="#f5d9a6"/>
      <stop offset="100%" stop-color="#c88e3b"/>
    </linearGradient>
    <linearGradient id="panel" x1="0" y1="0" x2="0" y2="1">
      <stop offset="0%" stop-color="#ffffff" stop-opacity="0.9"/>
      <stop offset="100%" stop-color="#ffffff" stop-opacity="0.62"/>
    </linearGradient>
  </defs>
  <rect width="900" height="1200" fill="url(#bg)"/>
  <rect x="72" y="84" width="756" height="1032" rx="36" fill="url(#panel)"/>
  <rect x="132" y="176" width="636" height="2" fill="#a36d2f" opacity="0.4"/>
  <rect x="132" y="222" width="430" height="18" rx="9" fill="#a36d2f" opacity="0.46"/>
  <rect x="132" y="270" width="560" height="14" rx="7" fill="#a36d2f" opacity="0.34"/>
  <rect x="132" y="310" width="520" height="14" rx="7" fill="#a36d2f" opacity="0.34"/>
  <rect x="132" y="350" width="470" height="14" rx="7" fill="#a36d2f" opacity="0.34"/>
  <circle cx="450" cy="640" r="128" fill="#a36d2f" opacity="0.24"/>
  <path d="M450 540l40 78 86 12-62 60 15 86-79-42-79 42 15-86-62-60 86-12z" fill="#8f5d28" opacity="0.68"/>
  <text x="450" y="910" text-anchor="middle" font-family="Georgia, serif" font-size="48" fill="#7d4f1f" opacity="0.9">Novel Cover</text>
  <text x="450" y="958" text-anchor="middle" font-family="Georgia, serif" font-size="28" fill="#7d4f1f" opacity="0.72">Default Placeholder</text>
</svg>
