<svg width="247" height="74" viewBox="0 0 247 74" fill="none" xmlns="http://www.w3.org/2000/svg">
<g clip-path="url(#clip0_113_3)">
<path d="M12.824 52.672C10.9467 52.672 9.13333 51.8613 7.384 50.24C7.128 50.1547 6.91467 49.9627 6.744 49.664C6.57333 49.408 6.40267 49.1947 6.232 49.024C5.93333 48.9387 5.74133 48.8107 5.656 48.64C5.57067 48.4693 5.48533 48.256 5.4 48C5.4 47.9573 5.35733 47.8933 5.272 47.808C5.22933 47.7653 5.18667 47.7227 5.144 47.68C5.10133 47.6373 5.05867 47.5947 5.016 47.552C4.97333 47.552 4.952 47.552 4.952 47.552C4.99467 47.5093 5.016 47.488 5.016 47.488C4.84533 47.1467 4.73867 46.912 4.696 46.784C4.65333 46.6133 4.48267 46.4 4.184 46.144C4.09867 46.0587 4.01333 45.9307 3.928 45.76C3.88533 45.5467 3.84267 45.376 3.8 45.248C3.33067 44.1387 2.904 43.008 2.52 41.856C2.17867 40.6613 2.008 39.4453 2.008 38.208C2.008 37.7813 2.136 37.4613 2.392 37.248C2.648 37.0347 2.92533 36.928 3.224 36.928C3.77867 36.928 4.14133 37.2053 4.312 37.76C4.39733 37.9307 4.48267 38.1227 4.568 38.336C4.696 38.5067 4.76 38.6773 4.76 38.848V39.488C4.76 39.744 4.824 39.808 4.952 39.68C5.12267 39.5093 5.22933 39.5307 5.272 39.744C5.35733 40.0427 5.42133 40.2347 5.464 40.32C5.50667 40.3627 5.67733 40.4693 5.976 40.64C6.06133 40.8107 6.168 40.9813 6.296 41.152C6.424 41.3227 6.552 41.4933 6.68 41.664V41.792C6.68 42.048 6.76533 42.24 6.936 42.368C7.10667 42.4533 7.29867 42.56 7.512 42.688L8.344 43.584C8.30133 43.6693 8.28 43.7547 8.28 43.84C8.28 44.096 8.408 44.2667 8.664 44.352C8.96267 44.4373 9.21867 44.5227 9.432 44.608C9.47467 44.6507 9.70933 44.864 10.136 45.248C10.6053 45.5893 10.9253 45.8027 11.096 45.888C11.3093 46.016 11.544 46.1653 11.8 46.336C12.056 46.464 12.312 46.5707 12.568 46.656C12.6533 46.656 12.7387 46.6987 12.824 46.784C13.592 47.0827 14.296 47.232 14.936 47.232C15.5333 47.232 16.216 47.104 16.984 46.848C17.112 46.8053 17.2187 46.784 17.304 46.784C17.432 46.7413 17.5173 46.72 17.56 46.72C17.688 46.72 17.752 46.7627 17.752 46.848C17.752 47.0613 17.56 47.2747 17.176 47.488C17.176 47.5733 17.112 47.616 16.984 47.616C16.8133 47.6587 16.6427 47.7227 16.472 47.808C16.3013 47.8933 16.1307 47.9147 15.96 47.872C15.7467 47.872 15.576 47.8507 15.448 47.808C15.32 47.7653 15.1493 47.8293 14.936 48C14.3813 47.9573 13.7627 47.8293 13.08 47.616C12.3973 47.4027 11.8213 47.168 11.352 46.912C11.3093 46.6133 11.1173 46.464 10.776 46.464C10.4347 46.4213 10.1573 46.3147 9.944 46.144C9.77333 45.9307 9.624 45.696 9.496 45.44C9.41067 45.184 9.19733 45.1627 8.856 45.376C8.68533 45.2053 8.536 45.0773 8.408 44.992C8.28 44.864 8.088 44.8 7.832 44.8C7.74667 44.7147 7.61867 44.6293 7.448 44.544C7.32 44.4587 7.27733 44.3307 7.32 44.16C7.14933 44.032 6.808 43.8187 6.296 43.52C5.82667 43.1787 5.54933 42.9653 5.464 42.88C5.08 42.4533 4.65333 42.0907 4.184 41.792L3.992 41.664C4.54667 43.328 5.208 44.9493 5.976 46.528C6.78667 48.1067 7.96 49.3867 9.496 50.368C10.2213 50.7947 10.8827 51.136 11.48 51.392C12.12 51.6907 12.7387 51.84 13.336 51.84C14.4453 51.84 15.6187 51.2853 16.856 50.176C17.9227 49.1947 18.8827 48.0213 19.736 46.656C20.5893 45.248 21.3573 43.776 22.04 42.24C22.7227 40.704 23.32 39.2747 23.832 37.952C23.9173 37.8667 23.9813 37.8027 24.024 37.76C24.0667 37.7173 24.1093 37.6747 24.152 37.632C24.28 37.3333 24.3653 36.992 24.408 36.608C24.4933 36.1813 24.5787 35.8187 24.664 35.52C24.8773 35.264 25.0693 34.9653 25.24 34.624C25.4533 34.24 25.56 33.8773 25.56 33.536L25.688 33.216C25.7733 33.1733 25.752 33.1093 25.624 33.024C25.496 32.9387 25.5813 32.8747 25.88 32.832C26.1787 32.3627 26.3493 31.8933 26.392 31.424C26.4773 30.912 26.6053 30.5493 26.776 30.336C26.904 30.1227 27.032 29.9307 27.16 29.76C27.288 29.5893 27.3093 29.376 27.224 29.12C27.2667 28.9493 27.3947 28.544 27.608 27.904C27.864 27.2213 28.1413 26.4747 28.44 25.664C28.7387 24.8533 28.9947 24.1493 29.208 23.552C29.4213 22.912 29.528 22.5493 29.528 22.464L30.232 20.608C29.0373 20.6507 27.8 20.7147 26.52 20.8C25.2827 20.8853 24.0667 21.0773 22.872 21.376C22.9147 21.3333 22.8933 21.2907 22.808 21.248C22.7227 21.1627 22.6587 21.12 22.616 21.12L22.552 21.056C22.3813 21.0133 22.3387 21.056 22.424 21.184C22.552 21.2693 22.5307 21.3547 22.36 21.44C21.976 21.4827 21.528 21.5893 21.016 21.76C20.5467 21.888 20.12 21.952 19.736 21.952C19.5653 21.9947 19.3733 22.016 19.16 22.016C18.9467 21.9733 18.7333 21.952 18.52 21.952C17.88 21.9947 17.24 22.1653 16.6 22.464C16.0027 22.7627 15.384 23.0187 14.744 23.232L13.592 23.552C13.1227 23.7653 12.6107 23.9147 12.056 24C11.5013 24.0853 10.9893 24.2347 10.52 24.448L10.584 24.512C10.4133 24.64 10.2 24.7253 9.944 24.768C9.688 24.8107 9.45333 24.8747 9.24 24.96C8.728 25.1307 8.19467 25.344 7.64 25.6C7.128 25.8133 6.59467 26.0053 6.04 26.176C5.74133 26.2613 5.44267 26.3467 5.144 26.432C4.888 26.4747 4.58933 26.56 4.248 26.688C4.07733 26.7307 3.928 26.7733 3.8 26.816C3.672 26.816 3.52267 26.816 3.352 26.816C2.968 26.816 2.62667 26.7307 2.328 26.56C2.15733 26.4747 1.90133 26.24 1.56 25.856C1.26133 25.4293 1.00533 25.0027 0.792 24.576C0.578667 24.1067 0.493333 23.7653 0.536 23.552C0.578667 23.424 0.856 23.2747 1.368 23.104C1.88 22.8907 2.47733 22.6987 3.16 22.528C3.84267 22.3147 4.46133 22.144 5.016 22.016C5.61333 21.8453 5.99733 21.7387 6.168 21.696C6.25333 21.6533 6.488 21.6107 6.872 21.568C7.256 21.4827 7.46933 21.5253 7.512 21.696C7.55467 21.7813 7.512 21.9093 7.384 22.08C7.256 22.208 7.14933 22.3147 7.064 22.4C7.064 22.4427 7 22.528 6.872 22.656C6.78667 22.784 6.78667 22.8267 6.872 22.784L9.112 22.208C9.45333 22.1227 9.85867 22.1013 10.328 22.144C10.84 22.144 11.224 22.0587 11.48 21.888C11.5653 21.8027 11.608 21.7173 11.608 21.632C11.6507 21.5467 11.736 21.504 11.864 21.504C12.1627 21.4187 12.6533 21.3333 13.336 21.248C14.0613 21.1627 14.5093 21.0347 14.68 20.864C15.0213 20.7787 15.384 20.736 15.768 20.736C16.152 20.6933 16.4933 20.5867 16.792 20.416C16.92 20.3733 17.3253 20.288 18.008 20.16C18.7333 20.032 19.544 19.904 20.44 19.776C21.3787 19.6053 22.2107 19.4773 22.936 19.392C23.6613 19.264 24.088 19.2 24.216 19.2H24.28C24.4507 19.2 24.6213 19.1787 24.792 19.136C24.9627 19.0933 25.1333 19.072 25.304 19.072C25.6453 19.072 25.816 19.2213 25.816 19.52C25.8587 19.5627 25.9653 19.584 26.136 19.584C26.52 19.584 26.8187 19.4773 27.032 19.264C27.2027 19.2213 27.3307 19.1573 27.416 19.072C27.544 18.9867 27.6933 18.9227 27.864 18.88C28.3333 18.7947 28.824 18.7733 29.336 18.816C29.8907 18.816 30.3813 18.816 30.808 18.816C31.1067 18.176 31.4267 17.7493 31.768 17.536C32.1093 17.28 32.6213 17.152 33.304 17.152C33.7733 17.152 34.072 17.3867 34.2 17.856C34.328 18.2827 34.392 18.6667 34.392 19.008C34.6053 19.008 34.8827 19.008 35.224 19.008C35.5653 18.9653 35.928 18.944 36.312 18.944C36.696 18.944 37.0587 18.9653 37.4 19.008C37.784 19.0507 38.0827 19.1147 38.296 19.2C38.3387 19.072 38.4453 19.0293 38.616 19.072C38.8293 19.072 38.9787 19.0933 39.064 19.136C39.4053 19.3067 39.768 19.392 40.152 19.392C40.5787 19.3493 40.984 19.4133 41.368 19.584C41.752 19.712 42.1147 19.8613 42.456 20.032C42.7973 20.2027 43.16 20.352 43.544 20.48C43.8853 20.5653 44.1413 20.6933 44.312 20.864C44.5253 21.0347 44.7813 21.2267 45.08 21.44C45.4213 21.696 45.6347 21.9307 45.72 22.144C45.72 22.144 45.7413 22.2293 45.784 22.4C45.8267 22.528 45.784 22.5707 45.656 22.528C45.6133 22.528 45.5493 22.528 45.464 22.528C45.4213 22.4853 45.3787 22.4853 45.336 22.528C45.336 22.6987 45.4 22.848 45.528 22.976C45.6133 23.0187 45.6987 23.0187 45.784 22.976C45.912 22.9333 45.9973 22.8907 46.04 22.848C46.2107 22.848 46.296 22.9333 46.296 23.104C46.3387 23.2747 46.3813 23.4453 46.424 23.616C46.552 24.128 46.616 24.64 46.616 25.152C46.616 25.7067 46.4667 26.3253 46.168 27.008C45.912 27.6907 45.5493 28.288 45.08 28.8C44.6107 29.2693 44.056 29.504 43.416 29.504C43.2027 29.504 43.032 29.4827 42.904 29.44C42.4347 29.312 42.2 29.184 42.2 29.056C42.2 28.928 42.4133 28.7147 42.84 28.416C43.1387 28.2027 43.3947 27.968 43.608 27.712C43.8213 27.4133 44.0133 27.1147 44.184 26.816C44.4827 26.6027 44.7173 26.176 44.888 25.536C45.0587 24.896 45.144 24.2987 45.144 23.744C45.144 23.3173 45.08 22.976 44.952 22.72C44.9093 22.72 44.7173 22.4853 44.376 22.016C44.0773 21.5467 43.7147 21.2907 43.288 21.248C43.0747 21.1627 42.84 21.0773 42.584 20.992C42.3707 20.9067 42.1573 20.8427 41.944 20.8C41.7733 20.6293 41.432 20.5013 40.92 20.416C40.4507 20.3307 39.96 20.2667 39.448 20.224C38.936 20.1813 38.552 20.16 38.296 20.16C38.0827 20.16 37.6987 20.1813 37.144 20.224C36.5893 20.224 36.0347 20.2453 35.48 20.288C34.9253 20.288 34.5413 20.288 34.328 20.288C33.944 21.3973 33.2827 22.0587 32.344 22.272C32.3013 22.4 32.1307 22.848 31.832 23.616C31.5333 24.384 31.2133 25.2373 30.872 26.176C30.5307 27.072 30.2107 27.8827 29.912 28.608C29.656 29.2907 29.5067 29.6747 29.464 29.76C29.336 29.9307 29.208 30.1013 29.08 30.272C28.952 30.4427 28.8667 30.6347 28.824 30.848C28.7813 31.2747 28.5893 31.872 28.248 32.64C27.9493 33.408 27.608 34.176 27.224 34.944C26.8827 35.6693 26.6053 36.2667 26.392 36.736C26.136 36.9067 25.9227 37.056 25.752 37.184C25.5813 37.2693 25.624 37.4613 25.88 37.76C25.752 38.0587 25.624 38.208 25.496 38.208C25.368 38.1653 25.1973 38.1227 24.984 38.08C25.0267 38.2933 25.0907 38.4427 25.176 38.528C25.2613 38.5707 25.3253 38.6987 25.368 38.912C25.0267 39.68 24.6 40.6187 24.088 41.728C23.576 42.7947 23.064 43.648 22.552 44.288C22.2533 44.416 22.0187 44.544 21.848 44.672C21.6773 44.8 21.6773 45.056 21.848 45.44C21.7627 45.5253 21.6987 45.632 21.656 45.76C21.6133 45.888 21.5707 46.016 21.528 46.144L21.016 46.912C20.8453 47.04 20.6747 47.1893 20.504 47.36C20.3333 47.488 20.248 47.7013 20.248 48C20.0773 48.256 19.928 48.448 19.8 48.576C19.544 48.6613 19.3307 48.768 19.16 48.896C18.9893 49.024 18.904 49.2587 18.904 49.6C18.0507 50.5387 17.0907 51.2853 16.024 51.84C15 52.3947 13.9333 52.672 12.824 52.672ZM52.065 47.936C51.425 47.936 50.9557 47.6587 50.657 47.104C50.6143 46.976 50.5077 46.784 50.337 46.528C50.209 46.272 50.1023 46.0587 50.017 45.888V45.824C50.017 45.7387 50.0383 45.6533 50.081 45.568C50.1237 45.4827 50.145 45.3973 50.145 45.312C50.145 45.1413 50.1023 44.992 50.017 44.864C49.9317 44.6933 49.889 44.5227 49.889 44.352C49.889 43.7547 50.0597 43.0507 50.401 42.24C50.785 41.4293 51.0837 40.7253 51.297 40.128C51.3823 39.7867 51.5957 39.3813 51.937 38.912C51.9797 38.8693 52.0223 38.848 52.065 38.848C52.1503 38.848 52.2143 38.8267 52.257 38.784C52.3423 38.656 52.385 38.528 52.385 38.4C52.4277 38.2293 52.4703 38.08 52.513 37.952C52.5557 37.8667 52.641 37.824 52.769 37.824C52.897 37.824 52.9823 37.7813 53.025 37.696C53.0677 37.6107 53.0037 37.568 52.833 37.568C52.6623 37.568 52.5983 37.5253 52.641 37.44C52.9397 36.8853 53.2597 36.3093 53.601 35.712C53.985 35.1147 54.241 34.7307 54.369 34.56C54.3263 34.6027 54.305 34.56 54.305 34.432C54.305 34.2613 54.2623 34.1973 54.177 34.24C54.1343 34.2827 54.0277 34.3893 53.857 34.56C53.6863 34.7307 53.5583 34.8587 53.473 34.944C53.2597 35.1147 53.0037 35.3493 52.705 35.648C52.4063 35.9467 52.2143 36.1387 52.129 36.224C52.001 36.2667 51.8303 36.4587 51.617 36.8C51.4037 37.0987 51.2543 37.2907 51.169 37.376C50.9983 37.5467 50.8277 37.632 50.657 37.632C50.5717 37.632 50.5077 37.5893 50.465 37.504C50.465 37.376 50.5077 37.248 50.593 37.12C50.6783 37.0347 50.7637 36.928 50.849 36.8C50.9343 36.6293 50.9983 36.5013 51.041 36.416C51.0837 36.3733 51.1477 36.3093 51.233 36.224C51.3183 36.096 51.361 36.0107 51.361 35.968L51.873 35.392C51.9157 35.3493 52.001 35.3493 52.129 35.392C52.257 35.392 52.3423 35.3707 52.385 35.328C52.4277 35.2427 52.3637 35.2 52.193 35.2C52.065 35.1573 52.0223 35.1147 52.065 35.072C52.449 34.3893 52.9397 33.728 53.537 33.088C54.1343 32.448 54.5397 32 54.753 31.744C54.9663 31.488 55.2437 31.296 55.585 31.168C55.969 30.9973 56.3317 30.912 56.673 30.912C56.9717 30.912 57.185 30.9333 57.313 30.976C57.569 31.0613 57.8677 31.1893 58.209 31.36C58.593 31.488 58.8277 31.68 58.913 31.936C59.041 32.192 58.9557 32.5973 58.657 33.152C58.3583 33.7067 57.9957 34.2613 57.569 34.816C57.185 35.328 56.865 35.6693 56.609 35.84C56.5663 35.8827 56.4597 35.904 56.289 35.904C56.1183 35.904 55.905 35.904 55.649 35.904C55.393 35.8613 55.2437 35.8827 55.201 35.968C55.073 36.1387 54.9237 36.3093 54.753 36.48C54.5823 36.608 54.4543 36.7787 54.369 36.992C54.3263 37.248 54.2623 37.4613 54.177 37.632C54.1343 37.8027 54.0063 38.0587 53.793 38.4C53.7503 38.4853 53.665 38.6347 53.537 38.848C53.409 39.0187 53.3237 39.1467 53.281 39.232C52.9823 40.1707 52.705 41.0667 52.449 41.92C52.2357 42.7307 52.129 43.4133 52.129 43.968C52.129 44.5227 52.2997 45.0133 52.641 45.44C52.9823 45.824 53.4303 46.016 53.985 46.016C54.625 46.016 55.3077 45.8027 56.033 45.376C56.4597 45.2053 56.929 44.8853 57.441 44.416C57.5263 44.3307 57.5903 44.2667 57.633 44.224C57.7183 44.1387 57.8037 44.0747 57.889 44.032H58.081C58.2943 44.032 58.401 44.1173 58.401 44.288C58.401 44.4587 58.2517 44.672 57.953 44.928C57.7823 45.056 57.6117 45.1627 57.441 45.248C57.313 45.3333 57.1637 45.44 56.993 45.568C56.7797 45.696 56.545 45.9093 56.289 46.208C56.033 46.464 55.7343 46.592 55.393 46.592H55.329C55.201 46.592 55.0943 46.5707 55.009 46.528C54.9237 46.4427 54.8383 46.4213 54.753 46.464C54.625 46.5067 54.625 46.592 54.753 46.72C54.9237 46.8053 54.945 46.8907 54.817 46.976L54.305 47.232C53.3663 47.7013 52.6197 47.936 52.065 47.936ZM41.697 47.552C41.441 47.552 41.121 47.2747 40.737 46.72C40.481 46.3787 40.353 45.8453 40.353 45.12C40.353 44.3947 40.481 43.6053 40.737 42.752C41.0357 41.8987 41.3983 41.152 41.825 40.512C42.2943 39.5733 42.6143 38.8693 42.785 38.4C42.9557 37.9307 43.1263 37.5467 43.297 37.248C43.297 37.2053 43.2543 37.1627 43.169 37.12C43.0837 37.0773 43.041 36.992 43.041 36.864C42.785 36.6933 42.5077 36.4587 42.209 36.16C41.953 35.8187 41.9317 35.4987 42.145 35.2C42.2303 35.1147 42.2943 35.072 42.337 35.072C42.3797 35.0293 42.401 35.008 42.401 35.008V34.88C42.401 34.7093 42.465 34.6027 42.593 34.56C42.7637 34.5173 42.849 34.4533 42.849 34.368C42.9343 33.7707 43.425 33.3227 44.321 33.024C45.2597 32.7253 46.0917 32.576 46.817 32.576C47.6277 32.576 48.033 32.704 48.033 32.96C48.033 33.088 47.8837 33.2373 47.585 33.408C47.457 33.4507 47.2437 33.6213 46.945 33.92C46.6463 34.2187 46.369 34.5813 46.113 35.008L45.665 35.776L45.217 36.352C44.961 36.8213 44.6837 37.312 44.385 37.824C44.129 38.2933 43.7023 39.1893 43.105 40.512C42.9343 40.9387 42.785 41.344 42.657 41.728C42.5717 42.112 42.5717 42.4107 42.657 42.624C42.6997 42.6667 42.5503 42.816 42.209 43.072C41.9103 43.328 41.7823 43.4773 41.825 43.52C41.8677 43.52 41.9317 43.5413 42.017 43.584C42.1023 43.584 42.209 43.584 42.337 43.584C42.593 43.584 42.849 43.5413 43.105 43.456C43.233 43.4133 43.3397 43.328 43.425 43.2C43.5103 43.0293 43.5743 42.944 43.617 42.944C43.873 42.944 44.1503 42.88 44.449 42.752C44.9183 42.5387 45.4943 42.112 46.177 41.472C46.2623 41.3867 46.433 41.3227 46.689 41.28C46.945 41.1947 47.1583 41.0453 47.329 40.832C47.841 40.3627 48.1397 40.0853 48.225 40C48.3103 39.872 48.5663 39.5947 48.993 39.168C48.993 39.1253 49.0783 38.9333 49.249 38.592C49.4197 38.208 49.505 37.9947 49.505 37.952C49.5903 37.7387 49.6757 37.632 49.761 37.632C49.9317 37.632 50.0597 37.7813 50.145 38.08C50.273 38.3787 50.273 38.6347 50.145 38.848C50.1023 38.8907 49.9957 38.976 49.825 39.104C49.697 39.232 49.5903 39.3387 49.505 39.424L48.673 40.256L46.945 41.792C46.9023 41.8347 46.8597 41.8987 46.817 41.984C46.7743 42.0693 46.7103 42.1547 46.625 42.24L46.049 43.136C46.0063 43.2213 45.921 43.2213 45.793 43.136C45.665 43.008 45.4943 43.0293 45.281 43.2C45.2383 43.2427 45.1957 43.328 45.153 43.456C45.153 43.584 45.1317 43.6907 45.089 43.776C45.0463 43.904 45.0463 43.9893 45.089 44.032C45.1317 44.032 45.153 44.0533 45.153 44.096C45.1103 44.224 45.025 44.3093 44.897 44.352C44.8117 44.3947 44.7263 44.4587 44.641 44.544C44.5983 44.5867 44.5983 44.6507 44.641 44.736C44.6837 44.8213 44.6623 44.9067 44.577 44.992C44.5343 45.12 44.4917 45.1627 44.449 45.12C44.4063 45.0773 44.3423 45.0987 44.257 45.184C44.2143 45.2267 44.1503 45.2907 44.065 45.376C44.0223 45.4187 43.9583 45.4613 43.873 45.504C43.5317 45.632 43.3397 45.8027 43.297 46.016C43.2543 46.2293 43.105 46.464 42.849 46.72C42.2943 47.2747 41.9103 47.552 41.697 47.552ZM53.665 27.712C53.537 27.712 53.4943 27.648 53.537 27.52C53.6223 27.392 53.7077 27.2427 53.793 27.072C53.921 26.8587 54.049 26.6667 54.177 26.496C54.1343 26.4533 54.1343 26.4533 54.177 26.496C54.2197 26.496 54.241 26.4747 54.241 26.432C54.2837 26.3893 54.3263 26.3253 54.369 26.24C54.4117 26.1547 54.5183 26.048 54.689 25.92C54.817 25.664 54.945 25.472 55.073 25.344C55.201 25.3013 55.3077 25.1947 55.393 25.024C55.4783 24.8533 55.6063 24.6827 55.777 24.512C56.033 24.1707 56.225 23.872 56.353 23.616C56.5237 23.36 56.6303 23.1253 56.673 22.912C56.7583 22.4427 56.673 22.08 56.417 21.824C56.161 21.5253 55.7983 21.376 55.329 21.376C54.9877 21.376 54.6463 21.4187 54.305 21.504C54.2623 21.504 54.1983 21.504 54.113 21.504C54.0703 21.4613 54.0063 21.44 53.921 21.44C53.8357 21.44 53.729 21.4827 53.601 21.568C53.5157 21.6533 53.409 21.7173 53.281 21.76C53.025 21.8027 52.7903 21.8667 52.577 21.952C52.4063 22.0373 52.2997 22.08 52.257 22.08C52.0437 22.08 51.9583 22.016 52.001 21.888C52.0437 21.7173 52.2783 21.5253 52.705 21.312C53.1743 21.056 53.6863 20.8213 54.241 20.608C54.369 20.5653 54.433 20.5653 54.433 20.608C54.4757 20.6507 54.5397 20.6507 54.625 20.608C54.6677 20.608 54.7317 20.5867 54.817 20.544C54.945 20.4587 55.0303 20.3947 55.073 20.352C55.969 20.096 56.609 19.968 56.993 19.968C57.2063 19.968 57.3557 20.0107 57.441 20.096C57.569 20.1813 57.7183 20.224 57.889 20.224C58.145 20.224 58.2943 20.3093 58.337 20.48C58.3797 20.608 58.4437 20.736 58.529 20.864L58.465 21.312C58.4223 21.568 58.4437 21.6533 58.529 21.568C58.657 21.44 58.6997 21.44 58.657 21.568C58.657 21.696 58.6143 21.824 58.529 21.952C58.4437 22.08 58.4863 22.2293 58.657 22.4C58.785 22.528 58.7423 22.6987 58.529 22.912C58.3583 23.0827 58.209 23.2747 58.081 23.488C58.0383 23.5307 57.9743 23.5947 57.889 23.68C57.8037 23.7227 57.7183 23.7867 57.633 23.872C57.5903 23.9573 57.569 24.0427 57.569 24.128C57.6117 24.1707 57.5903 24.2347 57.505 24.32C57.2917 24.4907 57.0997 24.6827 56.929 24.896C56.7583 25.1093 56.5023 25.3227 56.161 25.536C55.5637 26.048 55.1583 26.3893 54.945 26.56C54.7743 26.7307 54.6037 26.944 54.433 27.2C54.3903 27.2853 54.305 27.392 54.177 27.52C54.0917 27.648 53.9637 27.712 53.793 27.712H53.665ZM89.6935 52.608L89.1175 52.416C89.0748 52.544 88.9682 52.5867 88.7975 52.544C88.6695 52.544 88.5628 52.5013 88.4775 52.416C88.2642 52.0747 88.0295 51.9253 87.7735 51.968C87.5175 52.0533 87.1762 52.0107 86.7495 51.84H86.6855C86.5575 51.84 86.4082 51.8613 86.2375 51.904C86.1095 51.9893 85.9815 52.0107 85.8535 51.968L85.4055 51.584C85.4055 51.6267 85.3628 51.648 85.2775 51.648C85.1495 51.648 85.0215 51.6267 84.8935 51.584C84.7655 51.5413 84.7228 51.4987 84.7655 51.456L83.6775 50.88L83.5495 50.944L82.8455 50.176C82.8028 50.2187 82.7602 50.24 82.7175 50.24C82.6322 50.24 82.5468 50.176 82.4615 50.048C82.3762 49.9627 82.3122 49.92 82.2695 49.92C82.0135 49.7067 81.7148 49.4933 81.3735 49.28C81.0748 49.1093 80.7762 48.9173 80.4775 48.704C80.4348 48.6613 80.4135 48.576 80.4135 48.448C80.4135 48.3627 80.3708 48.2987 80.2855 48.256C80.1575 48.128 80.0082 48 79.8375 47.872C79.6668 47.744 79.5602 47.5947 79.5175 47.424L79.2615 47.488C79.0055 47.0187 78.7068 46.592 78.3655 46.208C78.0242 45.824 77.8748 45.312 77.9175 44.672H77.7895L76.9575 44.352V44.16C76.9148 44.16 76.8508 44.1813 76.7655 44.224C76.6802 44.224 76.5735 44.2027 76.4455 44.16C76.1468 44.032 75.8695 43.8827 75.6135 43.712C75.3575 43.4987 75.1655 43.2427 75.0375 42.944C74.9948 42.816 74.9308 42.752 74.8455 42.752C74.8028 42.752 74.7602 42.7307 74.7175 42.688C74.6322 42.4747 74.5042 42.2827 74.3335 42.112C74.1628 41.9413 74.0988 41.728 74.1415 41.472L74.3335 39.872C74.6748 39.488 74.9308 39.296 75.1015 39.296C75.2722 39.296 75.3575 39.488 75.3575 39.872L74.9735 40.512L75.0375 41.28C75.1228 41.3653 75.2508 41.408 75.4215 41.408C75.5922 41.408 75.7202 41.3867 75.8055 41.344L75.7415 41.728L75.9975 42.176L76.0615 42.048L76.4455 42.176L76.7655 42.624C76.8508 42.4533 76.9362 42.4533 77.0215 42.624C77.1068 42.752 77.1495 42.816 77.1495 42.816L77.4695 42.56C77.4268 42.3467 77.3842 42.1333 77.3415 41.92C77.2988 41.664 77.2775 41.4293 77.2775 41.216C77.2775 40.9173 77.2988 40.704 77.3415 40.576C77.4695 40.1067 77.5122 39.744 77.4695 39.488C77.4695 39.488 77.5548 39.3387 77.7255 39.04C77.8962 38.6987 78.0668 38.4853 78.2375 38.4L78.7495 38.08L78.8775 38.272C78.8348 38.3147 78.7495 38.4427 78.6215 38.656C78.4935 38.8693 78.3868 39.0187 78.3015 39.104C77.9602 39.8293 77.8322 40.5547 77.9175 41.28C77.9175 41.3227 77.9175 41.3867 77.9175 41.472C77.9602 41.5147 77.9602 41.6 77.9175 41.728V42.624C78.0028 42.6667 78.0455 42.8373 78.0455 43.136C78.0455 43.392 78.0882 43.4987 78.1735 43.456C78.3868 43.4133 78.5575 43.4773 78.6855 43.648C78.8562 43.776 78.9842 43.712 79.0695 43.456L79.5175 43.968H80.1575C80.1148 44.0533 80.2215 44.1387 80.4775 44.224C80.7762 44.2667 81.0748 44.288 81.3735 44.288C81.6722 44.288 81.8215 44.288 81.8215 44.288L82.2055 44.608C82.2055 44.5653 82.2695 44.608 82.3975 44.736H82.4615C82.5895 44.736 82.7175 44.6933 82.8455 44.608C83.0162 44.5227 83.1442 44.48 83.2295 44.48C83.4428 44.5227 83.6562 44.608 83.8695 44.736C84.1255 44.864 84.3175 44.864 84.4455 44.736L84.9575 44.928L85.5335 44.608C85.6188 44.6933 85.7895 44.7787 86.0455 44.864C86.1308 44.9067 86.2588 44.928 86.4295 44.928C86.8135 44.928 87.0908 44.8427 87.2615 44.672L87.5175 44.992C88.1148 44.9493 88.7122 44.9493 89.3095 44.992C89.9495 44.992 90.5468 44.992 91.1015 44.992C91.5708 44.992 92.0188 44.992 92.4455 44.992C92.9148 44.9493 93.3628 44.9067 93.7895 44.864C93.9175 44.864 94.0242 44.864 94.1095 44.864C94.1948 44.8213 94.2588 44.8 94.3015 44.8C94.6002 44.8 94.9415 44.7147 95.3255 44.544C95.7095 44.3733 96.0295 44.288 96.2855 44.288C96.3708 44.288 96.5628 44.224 96.8615 44.096C97.2028 43.9253 97.3095 44.032 97.1815 44.416L96.5415 44.736L96.3495 44.672C96.3068 44.7147 96.1148 44.8213 95.7735 44.992C95.4748 45.12 95.3042 45.1413 95.2615 45.056L93.9175 45.248C93.7468 45.2907 93.4908 45.3333 93.1495 45.376C92.8082 45.4187 92.6375 45.4187 92.6375 45.376L92.0615 45.504C92.0615 45.4613 92.0188 45.44 91.9335 45.44C91.7628 45.44 91.5068 45.504 91.1655 45.632C90.8668 45.76 90.6962 45.8027 90.6535 45.76C90.6108 45.6747 90.3975 45.6747 90.0135 45.76C89.6722 45.8027 89.3308 45.824 88.9895 45.824C88.4775 45.824 88.2002 45.7387 88.1575 45.568L87.6455 45.76C87.7308 45.6747 87.6882 45.632 87.5175 45.632C87.3895 45.5893 87.2828 45.5893 87.1975 45.632L87.1335 45.952C87.0482 45.9947 86.9628 45.9947 86.8775 45.952C86.7922 45.9093 86.7068 45.8667 86.6215 45.824C86.3655 45.696 85.9602 45.632 85.4055 45.632C84.8508 45.632 84.3175 45.6107 83.8055 45.568C83.2935 45.5253 82.9735 45.4187 82.8455 45.248L82.3335 45.504C82.1628 45.504 81.9068 45.4827 81.5655 45.44C81.2668 45.3547 81.0322 45.2907 80.8615 45.248C80.5628 45.1627 80.2215 45.0773 79.8375 44.992C79.4962 44.9067 79.1548 44.8853 78.8135 44.928L79.1335 45.44V45.568C79.4322 45.7387 79.6668 46.016 79.8375 46.4C80.0508 46.7413 80.3708 46.8693 80.7975 46.784L80.9895 47.616L81.5015 47.936C81.5442 47.8933 81.5868 47.872 81.6295 47.872C81.7575 47.872 81.9708 47.9573 82.2695 48.128C82.5682 48.2987 82.8028 48.4267 82.9735 48.512L83.1655 48.384L83.4855 48.96C83.5282 48.9173 83.5708 48.896 83.6135 48.896C83.7415 48.896 83.8908 48.9387 84.0615 49.024C84.2322 49.1093 84.3388 49.1307 84.3815 49.088L84.8295 49.216L85.2775 49.088C85.4482 49.344 85.5548 49.536 85.5975 49.664C85.6402 49.792 85.7042 49.8773 85.7895 49.92C86.0028 50.0053 86.0028 50.0693 85.7895 50.112C85.6188 50.1547 85.5335 50.2187 85.5335 50.304L85.5975 50.432H86.1735C86.1735 50.304 86.3228 50.1973 86.6215 50.112C86.9628 50.0693 87.3042 50.048 87.6455 50.048C88.1575 50.048 88.4562 50.0907 88.5415 50.176C88.7122 50.2613 88.7548 50.2613 88.6695 50.176L89.2455 50.112L89.6295 50.432C89.7148 50.304 89.8002 50.24 89.8855 50.24C90.0135 50.24 90.1202 50.2613 90.2055 50.304C90.3335 50.3893 90.3975 50.432 90.3975 50.432C90.4828 50.4747 90.5682 50.3893 90.6535 50.176C90.7815 50.0053 90.9308 49.9413 91.1015 49.984L91.3575 50.048C91.6562 50.048 91.9548 50.0053 92.2535 49.92C92.5948 49.8347 92.7868 49.92 92.8295 50.176L93.2775 49.856L93.5975 49.92L93.4695 50.432C93.4695 50.6027 93.4908 50.688 93.5335 50.688C93.6188 50.688 93.7255 50.5387 93.8535 50.24C94.0242 49.984 94.1095 49.9627 94.1095 50.176L94.5575 49.664C94.6855 49.7493 94.8562 49.792 95.0695 49.792C95.4108 49.792 95.7308 49.664 96.0295 49.408C96.3282 49.1947 96.6908 49.0453 97.1175 48.96L97.1815 49.088C97.2668 49.0453 97.3522 49.0027 97.4375 48.96C97.5655 48.96 97.6295 49.0027 97.6295 49.088L98.3335 49.024C98.5042 48.896 98.7815 48.7467 99.1655 48.576C99.5922 48.4053 99.8908 48.2773 100.062 48.192L100.126 47.936C100.126 47.936 100.232 47.936 100.446 47.936C100.702 47.8933 100.851 47.8507 100.894 47.808V47.744C100.894 47.6587 100.894 47.5307 100.894 47.36C100.894 47.1467 100.979 47.0613 101.15 47.104L101.47 47.296C101.854 47.168 102.11 46.9973 102.238 46.784C102.408 46.528 102.664 46.2933 103.006 46.08C103.134 45.9947 103.24 45.888 103.326 45.76C103.454 45.632 103.603 45.5467 103.774 45.504C103.816 45.504 103.88 45.568 103.966 45.696C104.094 45.824 104.222 45.8027 104.35 45.632L104.414 44.992L104.99 44.8L105.31 44.352C105.31 44.352 105.31 44.3733 105.31 44.416C105.352 44.416 105.395 44.416 105.438 44.416C105.608 44.416 105.8 44.2453 106.014 43.904C106.227 43.5627 106.27 43.328 106.142 43.2L106.782 42.496C106.739 42.24 106.824 41.92 107.038 41.536C107.294 41.152 107.422 40.6827 107.422 40.128C107.422 39.7867 107.315 39.3813 107.102 38.912C106.888 38.4427 106.462 37.9307 105.822 37.376L105.502 37.184C104.99 36.8427 104.52 36.5867 104.094 36.416C103.71 36.2027 103.198 35.9893 102.558 35.776C102.558 35.776 102.494 35.7333 102.366 35.648L100.574 35.136C100.403 35.008 100.019 34.9013 99.4215 34.816C98.8242 34.7307 98.4188 34.6667 98.2055 34.624C98.1202 34.5813 98.0135 34.5173 97.8855 34.432C97.8002 34.3467 97.7148 34.368 97.6295 34.496L97.0535 34.176C96.9682 34.2187 96.8615 34.24 96.7335 34.24C96.6482 34.24 96.5628 34.2187 96.4775 34.176C96.4348 34.1333 96.3068 34.112 96.0935 34.112C95.7948 34.0693 95.3042 33.9413 94.6215 33.728C93.9815 33.5147 93.6188 33.4507 93.5335 33.536L91.8695 32.704L91.6775 32.768L91.1015 32.448C91.2295 32.6187 91.1442 32.6613 90.8455 32.576C90.5468 32.448 90.2055 32.2987 89.8215 32.128C89.4375 31.9147 89.1388 31.7867 88.9255 31.744C88.2002 31.4453 87.5388 31.0187 86.9415 30.464C86.3868 29.9093 86.1095 29.2267 86.1095 28.416C86.1095 27.6907 86.1522 27.1787 86.2375 26.88C86.3228 26.5813 86.4295 26.3253 86.5575 26.112C86.7282 25.8987 86.8775 25.5787 87.0055 25.152C87.0908 25.024 87.1975 24.896 87.3255 24.768C87.4962 24.5973 87.6028 24.4267 87.6455 24.256L88.1575 23.936C88.2002 23.7227 88.3068 23.5093 88.4775 23.296C88.6908 23.0827 88.8828 22.9333 89.0535 22.848C89.6082 22.592 90.2268 22.1653 90.9095 21.568C91.6348 20.928 92.3388 20.4587 93.0215 20.16C93.1922 20.0747 93.3415 20.0107 93.4695 19.968C93.5975 19.8827 93.7468 19.8187 93.9175 19.776L93.9815 19.904C94.3655 19.776 95.0055 19.584 95.9015 19.328C96.7975 19.0293 97.7788 18.7307 98.8455 18.432C99.9548 18.1333 100.979 17.8773 101.918 17.664C102.899 17.4507 103.667 17.344 104.222 17.344C104.606 17.344 104.819 17.408 104.862 17.536L105.63 17.088C105.672 17.1307 105.758 17.1733 105.886 17.216C106.014 17.216 106.099 17.1947 106.142 17.152L106.782 17.344C106.952 17.2587 107.08 17.216 107.166 17.216C107.422 17.216 107.699 17.3013 107.998 17.472C108.339 17.6 108.595 17.6427 108.766 17.6C108.979 17.5147 109.128 17.4933 109.214 17.536C109.342 17.536 109.47 17.536 109.597 17.536H109.854C109.982 17.536 110.11 17.5573 110.238 17.6C110.408 17.6 110.579 17.6853 110.75 17.856L111.069 17.92C111.198 18.048 111.262 18.1973 111.262 18.368C111.347 18.5387 111.603 18.6453 112.03 18.688C112.456 18.7307 112.734 18.816 112.862 18.944C113.203 19.2 113.395 19.6267 113.438 20.224C113.523 20.7787 113.566 21.2907 113.566 21.76C113.523 22.2293 113.331 22.8053 112.99 23.488C112.691 24.128 112.307 24.64 111.838 25.024C111.624 25.1947 111.304 25.3867 110.878 25.6C110.451 25.7707 110.131 25.92 109.918 26.048C109.448 26.3467 108.936 26.496 108.382 26.496C107.571 26.496 107.166 26.3253 107.166 25.984C107.166 25.856 107.315 25.728 107.614 25.6C107.827 25.5147 108.019 25.4293 108.19 25.344C108.403 25.216 108.595 25.0667 108.766 24.896C108.936 24.8107 109.043 24.768 109.086 24.768C109.171 24.7253 109.235 24.6827 109.278 24.64C109.363 24.5973 109.427 24.5547 109.47 24.512C109.512 24.4267 109.598 24.3413 109.726 24.256C109.982 24.0427 110.302 23.7013 110.686 23.232C111.112 22.72 111.411 22.336 111.582 22.08C111.624 21.8667 111.71 21.5893 111.838 21.248C112.008 20.864 112.094 20.5227 112.094 20.224C112.094 19.968 112.03 19.776 111.902 19.648C111.859 19.648 111.838 19.6267 111.838 19.584L111.774 19.456C111.432 18.7307 110.75 18.3253 109.726 18.24C108.744 18.112 107.912 18.048 107.229 18.048C107.229 18.048 107.187 18.0267 107.102 17.984C107.016 17.9413 106.974 17.9627 106.974 18.048L105.566 18.176L105.438 18.048L104.094 18.304L103.966 18.24L102.558 18.624C102.6 18.5387 102.579 18.5173 102.494 18.56C102.408 18.56 102.366 18.56 102.366 18.56L100.958 18.944L100.894 18.88L100.254 19.264C100.254 19.2213 100.232 19.1787 100.19 19.136C100.147 19.0933 100.126 19.072 100.126 19.072C100.083 19.1147 100.04 19.1787 99.9975 19.264C99.9548 19.3067 99.8908 19.3493 99.8055 19.392L99.6775 19.328L98.7815 19.648C98.7815 19.6907 98.6962 19.712 98.5255 19.712C97.3735 20.224 96.1148 20.8213 94.7495 21.504C93.4268 22.144 92.4028 23.0613 91.6775 24.256L91.5495 24.128L90.9735 24.64C90.9308 24.6827 90.8668 24.7467 90.7815 24.832C90.7388 24.9173 90.6748 25.0667 90.5895 25.28C90.4615 25.6213 90.2695 26.0267 90.0135 26.496C89.8002 26.9653 89.6935 27.4133 89.6935 27.84C89.6935 28.2667 89.7788 28.672 89.9495 29.056C90.1202 29.3973 90.2482 29.4827 90.3335 29.312L90.9095 29.696L91.1015 30.4L91.2295 30.336L92.0615 30.976H92.1895L93.2135 31.808L93.9815 32.256H94.4935L95.2615 32.512C95.3468 32.5547 95.4108 32.6187 95.4535 32.704C95.5388 32.7467 95.6455 32.704 95.7735 32.576L96.4135 33.024C96.4562 32.9813 96.5202 32.96 96.6055 32.96C96.6908 32.96 96.7762 33.0027 96.8615 33.088C96.9468 33.1307 97.0108 33.1733 97.0535 33.216L97.1815 33.152L99.4215 34.048C99.5068 34.0053 99.6135 33.984 99.7415 33.984C99.9548 33.984 100.126 34.0267 100.254 34.112C100.424 34.1547 100.595 34.1973 100.766 34.24C100.851 34.2827 100.958 34.3467 101.086 34.432C101.256 34.5173 101.342 34.5813 101.342 34.624C101.427 34.6667 101.512 34.688 101.598 34.688C101.726 34.688 101.832 34.688 101.918 34.688L102.494 34.88L103.07 35.2L103.646 35.264C103.646 35.264 103.816 35.3493 104.158 35.52C104.542 35.648 104.926 35.776 105.31 35.904C105.736 36.032 105.971 36.1173 106.014 36.16L106.398 36.544L106.462 36.48L106.91 36.736C107.379 37.0347 107.848 37.6107 108.318 38.464C108.83 39.2747 109.086 40.1707 109.086 41.152C109.086 41.792 108.979 42.432 108.766 43.072C108.595 43.6693 108.382 44.16 108.126 44.544C107.486 45.3973 106.782 46.1653 106.014 46.848C105.288 47.5307 104.627 48.1067 104.03 48.576C103.816 48.704 103.667 48.8107 103.582 48.896C103.496 48.9813 103.368 49.024 103.198 49.024C103.07 49.0667 102.963 49.1307 102.878 49.216C102.28 49.5573 101.619 49.856 100.894 50.112C100.168 50.4107 99.5282 50.688 98.9735 50.944C98.7175 51.0293 98.5042 51.072 98.3335 51.072C98.1628 51.1147 97.9922 51.1573 97.8215 51.2C97.7788 51.2 97.6935 51.2213 97.5655 51.264C97.4802 51.3493 97.4375 51.3707 97.4375 51.328L96.9895 51.648C96.9468 51.6053 96.8828 51.584 96.7975 51.584C96.6268 51.584 96.4348 51.6693 96.2215 51.84C96.0508 52.0107 95.8802 52.0747 95.7095 52.032H95.6455C95.5175 52.032 95.3468 52.0533 95.1335 52.096C94.9628 52.1813 94.8348 52.1813 94.7495 52.096L93.9175 52.416L93.7895 52.096C93.7468 52.096 93.6828 52.1387 93.5975 52.224C93.5548 52.352 93.4908 52.416 93.4055 52.416C93.4055 52.416 93.3202 52.3733 93.1495 52.288C92.9788 52.2027 92.8508 52.2453 92.7655 52.416L92.0615 52.608C92.0188 52.4373 91.8908 52.352 91.6775 52.352C91.5068 52.352 91.3575 52.416 91.2295 52.544L90.7175 52.288V52.352L90.2055 52.288L89.6935 52.608ZM122.778 48.192C122.522 48.192 122.394 48.0427 122.394 47.744C122.394 47.5307 122.458 47.2747 122.586 46.976C122.927 46.2507 123.311 45.2267 123.738 43.904C124.207 42.5813 124.783 41.4507 125.466 40.512C125.935 39.5733 126.362 38.656 126.746 37.76C127.172 36.8213 127.578 35.8827 127.962 34.944C127.962 34.944 127.919 34.9227 127.833 34.88C127.748 34.7947 127.706 34.7093 127.706 34.624C127.492 34.4533 127.236 34.2187 126.938 33.92C126.639 33.5787 126.618 33.2373 126.874 32.896C126.959 32.8107 127.002 32.768 127.002 32.768C127.044 32.768 127.066 32.768 127.066 32.768C127.066 32.7253 127.044 32.704 127.002 32.704C127.002 32.704 127.002 32.6827 127.002 32.64L126.938 32.576C126.895 32.576 126.852 32.576 126.81 32.576C126.81 32.5333 126.788 32.512 126.746 32.512C126.575 32.512 126.383 32.5547 126.17 32.64C125.956 32.6827 125.743 32.704 125.53 32.704C125.274 32.704 124.932 32.8107 124.506 33.024C124.079 33.1947 123.695 33.344 123.354 33.472C123.183 33.5147 123.076 33.536 123.034 33.536C123.034 33.4933 122.948 33.5147 122.778 33.6C122.735 33.6427 122.735 33.5787 122.778 33.408C122.863 33.1947 122.906 33.0453 122.906 32.96C122.906 32.9173 122.884 32.896 122.842 32.896C122.756 32.896 122.586 33.024 122.33 33.28C122.074 33.4933 121.903 33.6213 121.818 33.664C121.775 33.7067 121.754 33.7707 121.754 33.856C121.796 33.9413 121.818 34.0267 121.818 34.112C121.818 34.24 121.711 34.3893 121.498 34.56C121.284 34.688 121.135 34.7947 121.05 34.88C120.879 35.008 120.666 35.0933 120.41 35.136C120.196 35.136 119.983 35.2213 119.77 35.392C119.514 35.5627 119.385 35.6907 119.385 35.776C119.428 35.8613 119.3 36.0107 119.002 36.224C118.618 36.5227 118.084 36.9707 117.402 37.568C116.762 38.1653 116.271 38.6987 115.93 39.168C115.119 40.1493 114.372 41.28 113.69 42.56C113.05 43.84 112.73 44.8427 112.73 45.568C112.73 46.1227 112.964 46.4 113.434 46.4C113.519 46.4 113.604 46.4 113.69 46.4C113.775 46.3573 113.882 46.3147 114.01 46.272L115.674 45.312L116.058 45.248V45.184L116.314 45.376C116.356 45.3333 116.335 45.2693 116.25 45.184C116.207 45.056 116.207 44.992 116.25 44.992C116.292 44.992 116.314 45.0133 116.314 45.056C116.356 45.056 116.399 45.056 116.442 45.056L116.57 44.864C116.57 44.864 116.634 44.8853 116.762 44.928C116.932 44.928 117.06 44.8853 117.146 44.8C117.274 44.7573 117.295 44.6933 117.21 44.608C117.167 44.5227 117.103 44.4587 117.018 44.416L117.466 44.032C117.508 43.9467 117.679 43.8613 117.978 43.776C118.703 43.3067 119.3 42.752 119.77 42.112C120.282 41.4293 120.858 40.8107 121.498 40.256H121.562L122.33 39.488L122.266 39.296L123.098 38.336H123.226C123.268 38.2507 123.354 38.144 123.482 38.016C123.652 37.888 123.759 37.7813 123.802 37.696C123.887 37.6533 124.079 37.44 124.378 37.056C124.719 36.6293 125.039 36.288 125.338 36.032C125.679 35.776 125.871 35.648 125.914 35.648C125.956 35.648 125.978 35.6693 125.978 35.712C125.978 35.84 125.914 36.032 125.786 36.288C125.7 36.544 125.615 36.7147 125.53 36.8C125.231 37.2693 124.847 37.8027 124.378 38.4C123.908 38.9547 123.631 39.296 123.546 39.424C123.034 39.9787 122.415 40.7253 121.69 41.664C120.964 42.56 120.175 43.456 119.322 44.352C118.468 45.248 117.615 46.016 116.762 46.656C115.951 47.2533 115.183 47.552 114.458 47.552C113.775 47.552 113.05 47.3387 112.282 46.912C111.514 46.4853 111.13 45.6747 111.13 44.48C111.13 44.096 111.172 43.6693 111.258 43.2C111.386 42.688 111.578 42.1547 111.834 41.6C111.834 41.6 111.876 41.5573 111.962 41.472C112.047 41.344 112.111 41.3013 112.154 41.344C112.239 41.216 112.26 41.088 112.218 40.96C112.218 40.7893 112.218 40.6827 112.218 40.64L112.346 40.512C112.431 40.0427 112.751 39.616 113.306 39.232C113.86 38.848 114.159 38.5493 114.202 38.336C114.244 38.2933 114.266 38.2293 114.266 38.144L114.522 37.312V37.056H114.778L114.97 36.8L115.034 36.672C114.948 36.6293 114.97 36.5653 115.098 36.48C115.268 36.352 115.354 36.288 115.354 36.288C115.396 36.2027 115.439 36.1387 115.482 36.096C115.567 36.0533 115.631 36.0107 115.674 35.968H116.122C116.207 35.84 116.164 35.776 115.994 35.776C115.823 35.776 115.738 35.776 115.738 35.776C115.738 35.7333 115.738 35.712 115.738 35.712C115.78 35.6693 115.802 35.6267 115.802 35.584L116.506 35.008C116.719 34.8373 116.932 34.688 117.146 34.56C117.359 34.432 117.551 34.2827 117.722 34.112C117.85 34.112 117.871 34.176 117.786 34.304C117.828 34.3893 117.871 34.3893 117.914 34.304C117.999 34.2187 118.042 34.176 118.042 34.176L118.362 34.112V34.048C118.362 33.9627 118.383 33.8347 118.426 33.664C118.468 33.4933 118.49 33.3867 118.49 33.344C119.386 32.6613 120.324 32.064 121.306 31.552C122.287 30.9973 123.247 30.72 124.186 30.72C125.295 30.72 126.298 31.1467 127.194 32L127.514 32.192C127.556 32.192 127.578 32.1707 127.578 32.128C127.663 31.5307 128.154 31.0827 129.05 30.784C129.988 30.4853 130.82 30.336 131.546 30.336C132.314 30.336 132.698 30.4427 132.698 30.656C132.698 30.7413 132.57 30.8907 132.314 31.104C132.186 31.1893 131.972 31.3813 131.674 31.68C131.375 31.9787 131.076 32.3413 130.778 32.768C130.735 32.896 130.671 33.024 130.586 33.152C130.5 33.28 130.415 33.408 130.33 33.536C130.287 33.6213 130.223 33.728 130.138 33.856C130.095 33.9413 130.031 34.0267 129.946 34.112C129.22 35.3493 128.644 36.3947 128.218 37.248C127.791 38.1013 127.279 39.1893 126.682 40.512C126.596 40.768 126.554 40.9173 126.554 40.96C126.554 41.3013 126.746 41.472 127.13 41.472C127.386 41.472 127.642 41.408 127.898 41.28L128.538 41.024C129.562 40.0853 130.628 39.296 131.738 38.656C131.78 38.656 131.802 38.656 131.802 38.656C131.844 38.6133 131.887 38.592 131.93 38.592C132.058 38.592 132.143 38.6773 132.186 38.848C132.228 38.976 132.186 39.0827 132.058 39.168C130.82 39.8507 129.668 40.7253 128.602 41.792C128.559 41.8773 128.516 41.9627 128.474 42.048C128.431 42.1333 128.367 42.2187 128.282 42.304C128.154 42.3893 128.026 42.5387 127.898 42.752C127.77 42.9653 127.706 43.0933 127.706 43.136C127.663 43.264 127.599 43.3067 127.514 43.264C127.471 43.2213 127.343 43.2853 127.13 43.456C127.087 43.4987 127.044 43.584 127.002 43.712C127.002 43.84 126.98 43.9467 126.938 44.032C126.852 44.16 126.767 44.2667 126.682 44.352C126.596 44.3947 126.554 44.4373 126.554 44.48C126.511 44.6507 126.426 44.7573 126.298 44.8C126.212 44.8 126.127 44.8427 126.042 44.928C125.999 44.928 125.978 44.9493 125.978 44.992C125.978 45.376 125.935 45.5467 125.85 45.504C125.764 45.4613 125.679 45.504 125.594 45.632C125.508 45.8027 125.402 45.888 125.274 45.888C125.018 45.9733 124.911 46.0373 124.954 46.08C125.039 46.1227 125.103 46.1653 125.146 46.208C125.231 46.208 125.167 46.272 124.954 46.4C124.868 46.4427 124.783 46.5707 124.698 46.784C124.612 46.9547 124.527 47.0827 124.442 47.168C124.314 47.2533 124.186 47.3173 124.058 47.36C123.93 47.4027 123.823 47.488 123.738 47.616C123.354 48 123.034 48.192 122.778 48.192ZM128.026 26.88C127.215 26.88 126.532 26.7947 125.978 26.624C125.935 26.5813 125.892 26.5813 125.85 26.624C125.85 26.624 125.807 26.6027 125.722 26.56C125.679 26.56 125.636 26.5387 125.594 26.496C125.551 26.4533 125.508 26.432 125.466 26.432L125.018 26.24C124.975 26.1973 124.932 26.176 124.89 26.176C124.89 26.1333 124.868 26.0907 124.826 26.048C124.783 26.0053 124.74 26.0053 124.698 26.048C124.698 26.0907 124.655 26.0907 124.57 26.048L124.314 25.664C124.015 25.4507 123.759 25.0667 123.546 24.512C123.332 24.0853 123.226 23.5093 123.226 22.784C123.226 22.656 123.226 22.528 123.226 22.4C123.226 22.2293 123.247 22.08 123.29 21.952C123.29 21.824 123.332 21.7173 123.418 21.632C123.588 21.376 123.844 21.248 124.186 21.248C124.442 21.248 124.676 21.312 124.89 21.44C125.146 21.568 125.252 21.6747 125.21 21.76C125.167 21.8027 125.146 21.8667 125.146 21.952C125.146 21.9947 125.167 22.0587 125.21 22.144C125.252 22.2293 125.274 22.3573 125.274 22.528V22.592C125.274 22.72 125.21 22.8267 125.082 22.912C124.954 22.9973 124.89 23.0827 124.89 23.168C124.89 23.296 124.932 23.36 125.018 23.36C125.146 23.36 125.231 23.4027 125.274 23.488C125.359 23.5733 125.402 23.7013 125.402 23.872C125.402 24 125.423 24.128 125.466 24.256C125.722 24.8107 126.042 25.152 126.426 25.28C126.81 25.3653 127.3 25.472 127.898 25.6C128.239 25.6427 128.666 25.6853 129.178 25.728C129.69 25.728 130.095 25.6427 130.394 25.472C130.479 25.4293 130.564 25.4507 130.65 25.536C130.778 25.5787 130.863 25.5787 130.906 25.536C131.076 25.4933 131.14 25.472 131.098 25.472C131.098 25.4293 131.162 25.3867 131.29 25.344C131.375 25.344 131.418 25.3653 131.418 25.408C131.46 25.408 131.503 25.3867 131.546 25.344C131.588 25.3013 131.588 25.2373 131.546 25.152C131.503 25.024 131.631 24.9173 131.93 24.832C132.271 24.6187 132.634 24.4267 133.018 24.256C133.402 24.0427 133.722 23.744 133.978 23.36L134.17 23.232C134.212 23.1467 134.255 23.0613 134.298 22.976C134.34 22.848 134.383 22.7627 134.426 22.72C134.596 22.6347 134.703 22.528 134.746 22.4C134.788 22.272 135.023 22.0587 135.45 21.76C135.578 21.6747 135.663 21.6533 135.706 21.696C135.791 21.7387 135.834 21.7813 135.834 21.824L135.642 22.272C135.599 22.4427 135.556 22.5707 135.514 22.656C135.471 22.7413 135.407 22.848 135.322 22.976C135.151 23.2747 134.938 23.552 134.682 23.808C134.426 24.0213 134.148 24.2773 133.85 24.576C133.722 24.704 133.658 24.768 133.658 24.768C133.572 24.768 133.508 24.8107 133.466 24.896C133.466 24.9387 133.444 24.9813 133.402 25.024L133.146 25.216C133.103 25.2587 133.06 25.28 133.018 25.28C132.975 25.28 132.932 25.3227 132.89 25.408C132.847 25.4933 132.783 25.536 132.698 25.536C132.655 25.4933 132.591 25.5147 132.506 25.6C132.463 25.6427 132.42 25.664 132.378 25.664C132.335 25.664 132.271 25.7067 132.186 25.792C132.143 25.8347 132.079 25.856 131.994 25.856C131.482 26.0693 130.863 26.304 130.138 26.56C129.455 26.7733 128.751 26.88 128.026 26.88ZM127.578 19.328C127.407 19.328 127.258 19.2853 127.13 19.2C127.044 19.1147 127.044 19.0507 127.13 19.008L128.602 17.728C129.071 17.3013 129.348 17.0453 129.434 16.96C129.562 16.832 129.69 16.7253 129.818 16.64C129.946 16.512 130.223 16.2773 130.65 15.936L130.842 15.616L130.906 15.68L131.098 15.488C131.226 15.488 131.311 15.4667 131.354 15.424L132.25 14.848L132.314 14.912L132.378 14.848C132.378 14.8053 132.399 14.784 132.442 14.784C132.484 14.784 132.527 14.7627 132.57 14.72L132.762 14.528C132.932 14.528 133.146 14.4853 133.402 14.4H133.53C133.572 14.4427 133.572 14.464 133.53 14.464L133.978 14.4V14.464L134.426 14.656H134.618C134.66 14.6987 134.703 14.7413 134.746 14.784C134.831 14.784 134.874 14.8267 134.874 14.912L135.002 14.976H135.13L135.066 15.104L134.81 15.296L134.234 15.744L133.658 16L133.274 16.128C133.103 16.256 132.911 16.384 132.698 16.512C132.527 16.5973 132.356 16.704 132.186 16.832H132.058C132.058 16.8747 132.036 16.896 131.994 16.896L131.738 17.088L131.226 17.28C131.183 17.3227 131.119 17.3867 131.034 17.472C130.991 17.5147 130.927 17.5787 130.842 17.664C130.714 17.7067 130.5 17.792 130.202 17.92C129.946 18.0053 129.796 18.0907 129.753 18.176C129.498 18.3467 129.263 18.4747 129.05 18.56C128.879 18.6453 128.474 18.9013 127.833 19.328H127.578ZM137.591 48.192C136.012 48.192 134.817 47.9147 134.007 47.36C133.196 46.8053 132.641 46.144 132.343 45.376C132.044 44.608 131.959 43.7333 132.087 42.752L132.215 42.56C132.3 42.432 132.364 42.2613 132.407 42.048C132.449 41.8347 132.492 41.7067 132.535 41.664L133.047 41.792C133.132 41.8347 133.196 41.7707 133.239 41.6C133.281 41.4293 133.26 41.3653 133.174 41.408C132.919 41.4507 132.791 41.4933 132.791 41.536C132.791 41.5787 132.748 41.4933 132.663 41.28L132.855 41.152L132.791 41.088C132.791 41.0027 132.833 40.96 132.919 40.96L132.791 40.768C132.791 40.768 132.961 40.7893 133.303 40.832C133.687 40.832 133.836 40.7893 133.751 40.704C133.793 40.704 133.772 40.6827 133.687 40.64C133.601 40.5547 133.559 40.4907 133.559 40.448C133.516 40.4907 133.495 40.4907 133.495 40.448C133.495 40.3627 133.345 40.3627 133.047 40.448C132.919 40.4907 132.855 40.4693 132.855 40.384C132.855 40.2987 132.855 40.256 132.855 40.256C132.983 40.2133 133.111 40.1707 133.239 40.128C133.367 40.0427 133.452 39.9147 133.495 39.744C133.537 39.3173 133.58 39.0827 133.623 39.04C133.665 38.9973 133.708 38.9333 133.751 38.848C133.793 38.7627 133.857 38.656 133.943 38.528C134.028 38.3573 134.092 38.272 134.135 38.272C134.092 38.2293 134.071 38.1653 134.071 38.08C134.071 37.8667 134.22 37.7813 134.519 37.824C134.86 37.8667 134.967 37.7387 134.839 37.44C134.711 37.2693 134.775 37.184 135.031 37.184L134.967 37.12C135.137 37.0347 135.244 36.992 135.286 36.992C135.372 36.9493 135.329 36.864 135.159 36.736L135.415 36.16C135.457 36.0747 135.543 35.9467 135.671 35.776C135.841 35.5627 136.097 35.3493 136.439 35.136C136.439 35.136 136.417 35.1573 136.375 35.2C136.375 35.2 136.375 35.2213 136.375 35.264H136.439C136.567 35.264 136.801 35.136 137.143 34.88C137.1 34.8373 137.015 34.816 136.887 34.816C136.801 34.7733 136.737 34.7307 136.695 34.688C136.652 34.56 136.865 34.2827 137.335 33.856C137.804 33.4293 138.316 33.024 138.871 32.64C139.425 32.2133 139.767 31.9573 139.895 31.872C140.535 31.5307 141.239 31.2533 142.007 31.04C142.817 30.784 143.521 30.72 144.119 30.848C144.247 30.8907 144.439 31.0613 144.695 31.36C144.993 31.6587 145.207 31.744 145.335 31.616C145.719 31.2747 146.167 30.9333 146.679 30.592C147.191 30.2507 147.489 30.1013 147.575 30.144C147.788 30.1867 148.001 30.272 148.215 30.4C148.428 30.4853 148.535 30.7413 148.535 31.168C148.535 31.4667 148.513 31.7227 148.471 31.936C148.428 32.192 148.321 32.4053 148.151 32.576C147.98 32.7467 147.809 32.9387 147.639 33.152C147.468 33.408 147.148 33.8133 146.679 34.368C146.252 34.88 145.932 35.2 145.719 35.328C145.591 35.3707 145.441 35.4987 145.271 35.712C145.143 35.8827 144.972 36.0533 144.759 36.224C144.588 36.352 144.375 36.4587 144.119 36.544C143.905 36.5867 143.756 36.6293 143.671 36.672C143.585 36.7147 143.436 36.736 143.223 36.736C143.052 36.6933 143.009 36.608 143.095 36.48C143.137 36.4373 143.137 36.3947 143.095 36.352C143.095 36.2667 143.095 36.2027 143.095 36.16C143.137 36.0747 143.201 36.0107 143.287 35.968C143.372 35.9253 143.436 35.8613 143.479 35.776C143.521 35.7333 143.628 35.584 143.799 35.328C144.012 35.072 144.119 34.9227 144.119 34.88C144.076 34.8373 144.076 34.7947 144.119 34.752C144.161 34.6667 144.183 34.6027 144.183 34.56C144.225 34.5173 144.247 34.4533 144.247 34.368C144.247 34.2827 144.289 34.24 144.375 34.24C144.545 34.1973 144.631 34.1333 144.631 34.048C144.631 33.7067 144.652 33.3867 144.695 33.088C144.78 32.7893 144.759 32.5333 144.631 32.32C144.46 31.9787 144.14 31.808 143.671 31.808C143.031 31.808 142.284 32.0853 141.431 32.64C140.577 33.152 140.001 33.5787 139.703 33.92C138.337 35.456 137.228 37.184 136.375 39.104C135.521 41.024 135.18 42.7307 135.351 44.224C135.436 44.9493 135.735 45.5467 136.247 46.016C136.759 46.4853 137.335 46.72 137.975 46.72H139.062C139.191 46.72 139.319 46.72 139.447 46.72C139.617 46.6773 139.788 46.6347 139.959 46.592C140.215 46.5067 140.407 46.464 140.535 46.464C140.748 46.2507 140.876 46.2507 140.919 46.464C141.26 46.2933 141.409 46.2293 141.367 46.272C141.324 46.3147 141.388 46.3147 141.559 46.272C142.412 46.0587 143.244 45.696 144.055 45.184C144.865 44.672 145.612 44.16 146.295 43.648C146.423 43.5627 146.636 43.4347 146.935 43.264C147.233 43.0933 147.447 42.9653 147.575 42.88C147.66 42.752 147.724 42.6453 147.767 42.56C147.852 42.432 147.959 42.3467 148.087 42.304C148.172 42.176 148.279 42.048 148.407 41.92C148.535 41.7493 148.62 41.6427 148.663 41.6C148.876 41.5147 148.94 41.4507 148.855 41.408C148.769 41.3227 148.876 41.216 149.175 41.088C149.26 41.0453 149.345 41.024 149.431 41.024C149.516 41.024 149.559 41.0667 149.559 41.152C149.559 41.2373 149.431 41.472 149.175 41.856C149.004 42.1547 148.684 42.5387 148.215 43.008L147.575 43.648L146.807 44.032C146.721 44.1173 146.679 44.2027 146.679 44.288C146.679 44.3307 146.636 44.3947 146.551 44.48C145.356 45.5467 143.991 46.4427 142.455 47.168C140.961 47.8507 139.34 48.192 137.591 48.192ZM172.183 52.352C171.714 52.352 171.351 52.224 171.095 51.968C170.668 51.4987 170.455 51.0507 170.455 50.624C170.455 50.4107 170.519 50.176 170.647 49.92C170.732 49.7067 170.882 49.408 171.095 49.024C171.351 48.64 171.564 48.2987 171.735 48C171.863 47.7867 172.012 47.6373 172.183 47.552C172.354 47.4667 172.482 47.36 172.567 47.232C172.61 47.1893 172.78 46.9333 173.079 46.464C173.378 45.952 173.698 45.376 174.039 44.736C174.423 44.0533 174.764 43.4347 175.063 42.88C175.362 42.3253 175.554 41.984 175.639 41.856C175.895 41.7707 176.044 41.6213 176.087 41.408C176.172 41.1947 176.236 41.0027 176.279 40.832C176.364 40.576 176.578 40.2773 176.919 39.936C177.26 39.5947 177.495 39.1893 177.623 38.72C177.495 38.5067 177.495 38.4213 177.623 38.464C177.794 38.5067 177.858 38.464 177.815 38.336L177.943 38.08C178.242 37.8667 178.455 37.5893 178.583 37.248C178.754 36.9067 178.86 36.5867 178.903 36.288C179.116 36.032 179.351 35.776 179.607 35.52C179.863 35.264 180.055 34.9867 180.183 34.688C180.226 34.6027 180.226 34.5387 180.183 34.496C180.183 34.4107 180.204 34.3467 180.247 34.304V34.24C180.972 33.0027 181.698 31.68 182.423 30.272C183.191 28.864 183.831 27.4347 184.343 25.984C184.855 24.4907 185.111 23.0827 185.111 21.76C185.111 20.5653 184.812 19.5627 184.215 18.752C184.087 18.752 183.959 18.752 183.831 18.752C183.703 18.7093 183.596 18.688 183.511 18.688C183.34 18.6453 183.02 18.6027 182.551 18.56C182.124 18.5173 181.698 18.4533 181.271 18.368C180.887 18.2827 180.674 18.24 180.631 18.24C180.46 18.1973 180.268 18.176 180.055 18.176C179.842 18.1333 179.607 18.112 179.351 18.112C179.052 18.112 178.732 18.1333 178.391 18.176C178.092 18.2187 177.815 18.2827 177.559 18.368L175.831 18.56C175.703 18.5173 175.468 18.496 175.127 18.496C174.231 18.496 173.207 18.6453 172.055 18.944C170.903 19.2 170.135 19.4773 169.751 19.776L169.303 20.096C169.175 20.1813 169.004 20.2453 168.791 20.288C168.578 20.3307 168.386 20.3947 168.215 20.48C167.788 20.6507 167.404 20.608 167.063 20.352C166.764 20.096 166.615 19.7973 166.615 19.456C166.615 19.1147 166.786 18.816 167.127 18.56C168.066 17.8347 169.068 17.2587 170.135 16.832C171.202 16.3627 172.311 15.9787 173.463 15.68C173.548 15.6373 173.655 15.5947 173.783 15.552C173.954 15.5093 174.103 15.488 174.231 15.488C174.7 15.488 174.999 15.488 175.127 15.488C175.255 15.4453 175.511 15.3813 175.895 15.296L175.959 15.232C176.13 15.232 176.258 15.2533 176.343 15.296H176.535C176.748 15.2107 176.94 15.1253 177.111 15.04C177.324 14.9547 177.538 15.0187 177.751 15.232L178.647 15.168C178.946 15.168 179.18 15.232 179.351 15.36C181.826 15.744 183.639 16.704 184.791 18.24C184.962 18.24 185.09 18.2187 185.175 18.176C185.474 18.2187 185.794 18.304 186.135 18.432C186.476 18.56 186.796 18.688 187.095 18.816C187.394 18.8587 187.65 18.9013 187.863 18.944C188.076 18.9867 188.29 19.0507 188.503 19.136L189.399 19.584C189.484 19.84 189.591 19.9893 189.719 20.032C189.847 20.0747 190.018 20.1813 190.231 20.352C190.402 20.4373 190.508 20.5653 190.551 20.736C190.636 20.864 190.722 21.0133 190.807 21.184C190.85 21.2267 190.871 21.3333 190.871 21.504C190.871 21.632 190.871 21.7173 190.871 21.76C190.786 22.1013 190.679 22.272 190.551 22.272C190.338 22.272 190.146 22.1013 189.975 21.76C189.548 21.0773 189.207 20.5867 188.951 20.288C188.695 19.9893 188.055 19.712 187.031 19.456C186.988 19.456 186.796 19.4133 186.455 19.328C186.114 19.2427 185.922 19.1787 185.879 19.136C185.751 19.136 185.559 19.0933 185.303 19.008C185.815 20.0747 186.071 21.248 186.071 22.528C186.071 22.7413 186.05 22.976 186.007 23.232C186.007 23.488 185.986 23.744 185.943 24C185.687 24.1707 185.559 24.3627 185.559 24.576C185.559 24.6613 185.559 24.768 185.559 24.896C185.602 24.9813 185.644 25.088 185.687 25.216C185.687 25.344 185.666 25.472 185.623 25.6C185.623 25.6853 185.602 25.792 185.559 25.92C185.388 26.048 185.282 26.2187 185.239 26.432C185.196 26.6453 185.196 26.8587 185.239 27.072L184.983 27.84C184.77 28.0533 184.642 28.2667 184.599 28.48C184.215 28.608 184.023 28.7787 184.023 28.992C184.023 29.2053 184.087 29.44 184.215 29.696C184.044 30.4213 183.682 31.2747 183.127 32.256C182.615 33.2373 182.188 34.0907 181.847 34.816C181.676 34.8587 181.548 34.88 181.463 34.88C181.378 34.88 181.228 34.9227 181.015 35.008C181.143 35.136 181.271 35.2427 181.399 35.328C181.527 35.4133 181.506 35.6053 181.335 35.904H181.207C180.908 35.904 180.759 36.0107 180.759 36.224C180.802 36.3947 180.823 36.5867 180.823 36.8C180.652 37.2267 180.396 37.8027 180.055 38.528C179.714 39.2107 179.351 39.872 178.967 40.512C178.583 41.152 178.242 41.6427 177.943 41.984C177.772 42.1547 177.666 42.3253 177.623 42.496C177.623 42.6667 177.602 42.8587 177.559 43.072C177.559 43.1573 177.41 43.456 177.111 43.968C176.855 44.48 176.578 45.0133 176.279 45.568C175.98 46.1227 175.767 46.4853 175.639 46.656C175.682 46.8267 175.703 47.04 175.703 47.296C175.703 47.936 175.49 48.4907 175.063 48.96C174.679 49.472 174.338 49.9627 174.039 50.432C173.911 50.6027 173.74 50.8373 173.527 51.136C173.356 51.4347 173.164 51.6907 172.951 51.904L172.439 52.16C172.396 52.16 172.354 52.1813 172.311 52.224C172.311 52.2667 172.268 52.3093 172.183 52.352ZM169.111 18.368H169.943C170.114 18.368 170.263 18.368 170.391 18.368C170.519 18.368 170.668 18.3467 170.839 18.304C171.308 18.2187 171.778 18.1333 172.247 18.048C172.759 17.92 173.207 17.8347 173.591 17.792C173.719 17.7493 173.847 17.728 173.975 17.728C174.103 17.728 174.21 17.728 174.295 17.728C174.466 17.728 174.615 17.728 174.743 17.728C174.914 17.728 175.084 17.7493 175.255 17.792C175.34 17.792 175.468 17.7493 175.639 17.664C175.852 17.536 176.066 17.472 176.279 17.472C176.663 17.472 177.047 17.4507 177.431 17.408C177.815 17.3653 178.092 17.344 178.263 17.344H180.567C180.994 17.344 181.399 17.4293 181.783 17.6C182.167 17.728 182.508 17.7707 182.807 17.728C182.892 17.728 182.978 17.7493 183.063 17.792C182.466 17.408 181.719 17.088 180.823 16.832C179.714 16.4907 178.562 16.32 177.367 16.32C174.722 16.32 171.97 17.0027 169.111 18.368ZM195.415 48.448C195.074 48.448 194.839 48.3627 194.711 48.192C194.626 48.064 194.583 47.872 194.583 47.616C194.583 47.488 194.583 47.3387 194.583 47.168C194.626 46.9547 194.647 46.7627 194.647 46.592C194.647 46.2933 194.604 45.9733 194.519 45.632C194.434 45.2907 194.22 44.9707 193.879 44.672C193.708 44.288 193.431 44.0747 193.047 44.032C192.876 43.776 192.706 43.648 192.535 43.648H192.471C192.386 43.648 192.3 43.5627 192.215 43.392C192.13 43.1787 192.002 43.072 191.831 43.072C191.746 43.1573 191.746 43.2427 191.831 43.328C191.746 43.2853 191.66 43.2427 191.575 43.2C191.49 43.1573 191.383 43.1573 191.255 43.2C191.084 43.1147 190.999 43.072 190.999 43.072H190.935C190.764 42.8587 190.53 42.7307 190.231 42.688C189.975 42.6027 189.74 42.6027 189.527 42.688L188.759 42.496C188.46 42.3253 188.183 42.2187 187.927 42.176C187.799 42.176 187.714 42.24 187.671 42.368C187.628 42.4533 187.5 42.4533 187.287 42.368C186.988 42.24 186.732 42.2187 186.519 42.304C186.092 42.304 185.666 42.304 185.239 42.304C184.855 42.2613 184.45 42.2613 184.023 42.304L183.447 42.368L182.935 42.432C182.764 42.4747 182.594 42.496 182.423 42.496C182.252 42.496 182.082 42.496 181.911 42.496C181.484 42.496 181.228 42.4747 181.143 42.432C180.844 42.304 180.524 42.0693 180.183 41.728C179.842 41.344 179.671 41.0027 179.671 40.704C179.671 40.4907 179.692 40.2347 179.735 39.936C179.778 39.6373 179.927 39.4027 180.183 39.232C181.079 38.5067 182.06 38.144 183.127 38.144C184.108 38.144 184.834 38.208 185.303 38.336C185.772 38.464 186.199 38.656 186.583 38.912C187.01 39.1253 187.586 39.36 188.311 39.616C189.036 39.8293 189.762 39.936 190.487 39.936C190.999 39.936 191.511 39.9147 192.023 39.872C192.578 39.7867 193.09 39.7227 193.559 39.68C193.815 39.6373 194.092 39.616 194.391 39.616C194.69 39.5733 194.967 39.5307 195.223 39.488H195.415C195.543 39.488 195.65 39.5093 195.735 39.552C195.863 39.5947 196.012 39.5947 196.183 39.552C196.268 39.552 196.418 39.5093 196.631 39.424C196.844 39.296 196.994 39.232 197.079 39.232C197.164 39.232 197.228 39.232 197.271 39.232C197.356 39.1893 197.442 39.168 197.527 39.168L197.783 38.464C197.868 38.208 197.954 37.952 198.039 37.696C198.124 37.3973 198.167 37.0987 198.167 36.8V36.736C198.21 36.6933 198.252 36.5227 198.295 36.224C198.38 35.8827 198.423 35.712 198.423 35.712L199.063 33.984L199.255 33.536L199.319 33.024C199.404 32.8533 199.447 32.7253 199.447 32.64C199.66 31.9147 199.938 31.2107 200.279 30.528C200.663 29.8453 200.94 29.1413 201.111 28.416L201.239 27.904L201.431 27.52V27.456C201.516 27.3707 201.538 27.3067 201.495 27.264C201.495 27.1787 201.495 27.1147 201.495 27.072C201.452 27.072 201.41 27.0507 201.367 27.008C201.367 26.9653 201.367 26.944 201.367 26.944C201.708 26.688 201.986 26.4107 202.199 26.112C202.412 25.7707 202.455 25.3867 202.327 24.96V24.896L202.647 23.936L202.775 23.424C202.86 23.296 202.988 23.2107 203.159 23.168C203.372 23.0827 203.436 22.9547 203.351 22.784C203.01 22.656 202.946 22.4213 203.159 22.08C203.202 22.0373 203.266 22.016 203.351 22.016C203.522 22.016 203.735 21.9947 203.991 21.952C204.247 21.9093 204.46 21.8027 204.631 21.632V21.44C204.503 21.2267 204.29 21.12 203.991 21.12C203.735 21.0773 203.607 20.928 203.607 20.672L203.735 20.48L203.863 19.904C203.991 19.264 204.439 18.7733 205.207 18.432C205.975 18.048 206.679 17.856 207.319 17.856C207.66 17.856 207.938 17.92 208.151 18.048C208.364 18.176 208.407 18.3893 208.279 18.688L207.191 21.248C207.063 21.376 206.956 21.5467 206.871 21.76C206.786 21.9307 206.679 22.1013 206.551 22.272C206.508 22.3573 206.423 22.4213 206.295 22.464C206.21 22.464 206.146 22.5067 206.103 22.592C206.06 22.72 206.082 22.784 206.167 22.784C206.252 22.7413 206.274 22.784 206.231 22.912C206.146 23.2107 205.975 23.5733 205.719 24C205.506 24.384 205.314 24.704 205.143 24.96C205.1 24.96 205.058 24.9813 205.015 25.024C204.844 25.024 204.759 24.9173 204.759 24.704C204.759 24.4907 204.695 24.3627 204.567 24.32C204.567 24.3627 204.546 24.4053 204.503 24.448C204.503 24.4907 204.503 24.5547 204.503 24.64C204.503 24.8107 204.524 24.9813 204.567 25.152C204.652 25.3227 204.674 25.5147 204.631 25.728C204.546 25.7707 204.503 25.8987 204.503 26.112C204.503 26.24 204.439 26.3253 204.311 26.368C204.183 26.368 204.098 26.4533 204.055 26.624L202.839 28.608L202.583 29.12C202.498 29.2907 202.391 29.4613 202.263 29.632C202.135 29.8027 202.007 29.9947 201.879 30.208C201.751 30.4213 201.687 30.5493 201.687 30.592C201.687 30.592 201.623 30.6987 201.495 30.912C201.452 30.9973 201.41 31.1253 201.367 31.296C201.324 31.4667 201.26 31.616 201.175 31.744C201.175 31.744 201.09 31.7227 200.919 31.68C200.748 31.6373 200.663 31.6373 200.663 31.68C200.578 31.808 200.535 31.9573 200.535 32.128C200.535 32.2133 200.535 32.32 200.535 32.448C200.578 32.5333 200.62 32.6827 200.663 32.896C200.663 33.0667 200.642 33.1733 200.599 33.216C200.514 33.3867 200.471 33.5147 200.471 33.6C200.471 33.6853 200.364 33.856 200.151 34.112C199.938 34.3253 199.831 34.4747 199.831 34.56C199.703 34.9867 199.639 35.2853 199.639 35.456C199.639 35.584 199.554 35.8613 199.383 36.288L199.063 37.12C199.063 37.12 199.063 37.2053 199.063 37.376C199.063 37.5467 199.042 37.632 198.999 37.632C198.914 37.76 198.807 37.952 198.679 38.208C198.594 38.4213 198.508 38.656 198.423 38.912C198.679 38.8267 198.914 38.7627 199.127 38.72C199.34 38.6347 199.49 38.592 199.575 38.592C199.831 38.5493 200.044 38.5493 200.215 38.592C200.428 38.592 200.62 38.592 200.791 38.592C200.919 38.592 201.026 38.5493 201.111 38.464C201.239 38.3787 201.324 38.336 201.367 38.336C201.495 38.2933 201.602 38.3147 201.687 38.4C201.772 38.4427 201.815 38.464 201.815 38.464C201.815 38.464 201.815 38.528 201.815 38.656C201.815 38.7413 201.772 38.8267 201.687 38.912C201.644 38.9547 201.559 38.9547 201.431 38.912C201.303 38.8693 201.196 38.8693 201.111 38.912C200.812 38.9547 200.428 39.0187 199.959 39.104C199.49 39.1893 199.02 39.2747 198.551 39.36C198.423 39.36 198.316 39.3813 198.231 39.424C198.103 39.808 198.039 40.1493 198.039 40.448L197.847 41.024C197.804 41.152 197.762 41.3013 197.719 41.472C197.676 41.6 197.634 41.7067 197.591 41.792L197.527 42.112L197.463 42.176C197.42 42.3467 197.42 42.4747 197.463 42.56C197.506 42.6453 197.506 42.7947 197.463 43.008V43.776C197.804 44.288 197.975 44.7147 197.975 45.056C197.975 45.3973 197.89 45.696 197.719 45.952C197.548 46.208 197.442 46.5493 197.399 46.976C197.356 47.2747 197.164 47.5947 196.823 47.936C196.524 48.2773 196.055 48.448 195.415 48.448ZM195.735 44.736C195.82 44.736 195.906 44.6293 195.991 44.416C196.119 44.2027 196.268 43.8187 196.439 43.264L196.503 42.752C196.546 42.6667 196.588 42.5173 196.631 42.304C196.716 42.048 196.78 41.8987 196.823 41.856V41.792C197.036 41.536 197.164 41.3013 197.207 41.088C197.25 40.832 197.271 40.5547 197.271 40.256V40L197.399 39.552C197.186 39.5947 196.887 39.68 196.503 39.808C196.119 39.936 195.692 40.0213 195.223 40.064C194.455 40.1493 193.623 40.2773 192.727 40.448C191.874 40.6187 191.106 40.7253 190.423 40.768C190.295 40.768 190.146 40.7893 189.975 40.832C189.804 40.832 189.676 40.8107 189.591 40.768C189.463 40.6827 189.399 40.5973 189.399 40.512C189.356 40.3413 189.25 40.2773 189.079 40.32C188.951 40.3627 188.887 40.384 188.887 40.384C188.844 40.384 188.78 40.4267 188.695 40.512C188.652 40.5547 188.588 40.576 188.503 40.576C188.332 40.576 188.183 40.5973 188.055 40.64C187.97 40.6827 187.842 40.704 187.671 40.704C187.5 40.6613 187.33 40.6187 187.159 40.576C186.988 40.5333 186.839 40.512 186.711 40.512C186.54 40.5547 186.348 40.5973 186.135 40.64C185.964 40.64 185.772 40.6613 185.559 40.704C185.516 40.704 185.474 40.704 185.431 40.704C185.431 40.6613 185.41 40.64 185.367 40.64C185.154 40.64 185.047 40.7467 185.047 40.96C185.047 41.2587 185.239 41.344 185.623 41.216L187.159 41.408H187.607L187.671 41.472C187.756 41.5147 187.842 41.5573 187.927 41.6C188.055 41.6427 188.183 41.6853 188.311 41.728C188.652 41.856 189.1 41.9413 189.655 41.984C190.252 42.0267 190.7 42.112 190.999 42.24L191.703 42.56C191.874 42.6027 192.002 42.624 192.087 42.624C192.172 42.624 192.3 42.6453 192.471 42.688L192.791 43.072C192.962 43.1147 193.068 43.1147 193.111 43.072C193.154 43.0293 193.239 43.0507 193.367 43.136L194.007 43.52C194.135 43.7333 194.306 43.8827 194.519 43.968C194.732 44.0533 194.86 44.096 194.903 44.096C195.116 44.1813 195.266 44.3093 195.351 44.48C195.479 44.6507 195.607 44.736 195.735 44.736ZM213.053 28.032C212.925 28.032 212.797 27.9893 212.669 27.904C212.583 27.8187 212.455 27.712 212.285 27.584C212.199 27.5413 212.093 27.4987 211.965 27.456C211.879 27.3707 211.837 27.2427 211.837 27.072C211.794 27.0293 211.709 27.008 211.581 27.008C211.367 27.008 211.26 26.8587 211.26 26.56C211.26 26.2187 211.431 25.984 211.773 25.856L212.093 25.6V25.664L212.349 25.344H212.477C212.733 25.344 212.903 25.216 212.989 24.96C213.117 24.704 213.373 24.5333 213.757 24.448C214.013 24.3627 214.226 24.384 214.397 24.512C214.567 24.64 214.781 24.704 215.037 24.704C215.293 24.704 215.57 24.6187 215.869 24.448L216.829 24.256C216.957 24.256 217.021 24.2987 217.021 24.384C217.021 24.4693 216.893 24.576 216.637 24.704C216.423 24.832 216.274 24.9387 216.189 25.024L216.125 25.088L216.061 25.216L215.805 25.536C215.549 25.8347 215.25 26.1973 214.909 26.624C214.61 27.008 214.29 27.328 213.949 27.584C213.565 27.8827 213.266 28.032 213.053 28.032ZM203.325 48.192C203.069 48.192 202.941 48.0427 202.941 47.744C202.941 47.5307 203.005 47.2747 203.133 46.976C203.474 46.2507 203.858 45.2267 204.285 43.904C204.754 42.5813 205.33 41.4507 206.013 40.512C206.482 39.5733 206.909 38.656 207.293 37.76C207.719 36.8213 208.125 35.8827 208.509 34.944C208.509 34.944 208.466 34.9227 208.381 34.88C208.338 34.7947 208.317 34.7093 208.317 34.624C208.061 34.4533 207.783 34.2187 207.485 33.92C207.229 33.5787 207.207 33.2373 207.421 32.896C207.506 32.8107 207.57 32.768 207.613 32.768C207.655 32.768 207.677 32.768 207.677 32.768C207.677 32.7253 207.655 32.704 207.613 32.704C207.613 32.6613 207.613 32.64 207.613 32.64C207.613 32.4693 207.698 32.3627 207.869 32.32C208.039 32.2773 208.125 32.2133 208.125 32.128C208.21 31.5307 208.722 31.0827 209.661 30.784C210.599 30.4853 211.431 30.336 212.157 30.336C212.882 30.336 213.245 30.4427 213.245 30.656C213.245 30.7413 213.117 30.8907 212.861 31.104C212.733 31.1893 212.519 31.3813 212.22 31.68C211.922 31.9787 211.645 32.3413 211.389 32.768L210.877 33.536C210.834 33.6213 210.77 33.728 210.685 33.856C210.642 33.9413 210.578 34.0267 210.493 34.112C209.81 35.3493 209.255 36.3947 208.829 37.248C208.402 38.1013 207.89 39.1893 207.293 40.512C207.207 40.768 207.165 40.9387 207.165 41.024C207.165 41.3227 207.335 41.472 207.677 41.472C207.933 41.472 208.189 41.408 208.445 41.28L209.085 41.024C210.109 40.0853 211.175 39.296 212.285 38.656C212.327 38.656 212.349 38.656 212.349 38.656C212.391 38.6133 212.434 38.592 212.477 38.592C212.605 38.592 212.69 38.6773 212.733 38.848C212.775 38.976 212.733 39.0827 212.605 39.168C211.367 39.8507 210.215 40.7253 209.149 41.792C209.106 41.8773 209.063 41.9627 209.021 42.048C208.978 42.1333 208.914 42.2187 208.829 42.304C208.743 42.3893 208.615 42.5387 208.445 42.752C208.317 42.9653 208.253 43.0933 208.253 43.136C208.21 43.264 208.146 43.3067 208.061 43.264C208.018 43.2213 207.89 43.2853 207.677 43.456C207.634 43.4987 207.591 43.584 207.549 43.712C207.549 43.84 207.527 43.9467 207.485 44.032C207.442 44.16 207.357 44.2667 207.229 44.352C207.143 44.3947 207.101 44.4373 207.101 44.48C207.058 44.6507 206.973 44.7573 206.845 44.8C206.759 44.8 206.674 44.8427 206.589 44.928C206.546 44.9707 206.546 45.0347 206.589 45.12C206.631 45.2053 206.61 45.2907 206.525 45.376C206.482 45.504 206.439 45.568 206.397 45.568C206.354 45.5253 206.29 45.5467 206.205 45.632C206.034 45.8027 205.906 45.888 205.821 45.888C205.565 45.9733 205.458 46.0373 205.501 46.08C205.586 46.1227 205.65 46.1653 205.693 46.208C205.778 46.208 205.714 46.272 205.501 46.4C205.415 46.4427 205.33 46.5707 205.245 46.784C205.159 46.9547 205.074 47.0827 204.989 47.168C204.861 47.2533 204.733 47.3173 204.605 47.36C204.519 47.4027 204.413 47.488 204.285 47.616C203.901 48 203.581 48.192 203.325 48.192ZM217.468 48.128C216.401 48.128 215.463 47.8293 214.652 47.232C213.841 46.6347 213.436 45.6107 213.436 44.16C213.436 43.6053 213.5 43.0507 213.628 42.496C213.756 41.8987 213.905 41.3227 214.076 40.768C214.161 40.2133 214.289 39.7227 214.46 39.296C214.503 39.1253 214.524 39.04 214.524 39.04C214.567 38.9973 214.673 38.9333 214.844 38.848L215.356 38.08V37.824C215.313 37.824 215.292 37.824 215.292 37.824C215.292 37.7813 215.292 37.76 215.292 37.76C215.292 37.632 215.399 37.4827 215.612 37.312C215.825 37.1413 215.932 37.056 215.932 37.056C215.975 36.8427 216.039 36.736 216.124 36.736C216.209 36.736 216.316 36.672 216.444 36.544H217.148V36.416C217.148 36.2027 217.041 36.1173 216.828 36.16C216.657 36.16 216.572 36.1387 216.572 36.096C216.572 36.0533 216.636 35.968 216.764 35.84C216.935 35.6693 217.041 35.5627 217.084 35.52C217.212 35.3493 217.319 35.2 217.404 35.072C217.489 34.9013 217.617 34.7733 217.788 34.688C218.556 33.7493 219.025 33.152 219.196 32.896C219.409 32.64 219.623 32.448 219.836 32.32C219.921 32.32 219.985 32.3627 220.028 32.448C220.113 32.4907 220.113 32.5547 220.028 32.64C220.113 32.768 220.177 32.7893 220.22 32.704C220.305 32.6187 220.348 32.576 220.348 32.576L220.604 32.448C220.519 32.3627 220.476 32.256 220.476 32.128C220.476 31.9147 220.519 31.744 220.604 31.616C220.689 31.4453 220.839 31.2747 221.052 31.104C221.308 30.9333 221.436 30.8267 221.436 30.784C221.692 30.6987 221.884 30.6133 222.012 30.528C222.183 30.4427 222.353 30.4 222.524 30.4C222.823 30.4 223.121 30.5067 223.42 30.72C224.231 31.1467 224.913 31.5733 225.468 32C226.023 32.4267 226.3 33.024 226.3 33.792C226.3 34.6027 225.959 35.3067 225.276 35.904C224.636 36.4587 223.847 36.928 222.908 37.312C221.969 37.696 221.031 38.016 220.092 38.272C219.196 38.4853 218.492 38.656 217.98 38.784C217.681 38.8267 217.532 38.9547 217.532 39.168C217.575 39.3387 217.553 39.5307 217.468 39.744L217.02 40.448L216.636 41.344L216.316 41.92C216.017 42.176 215.911 42.368 215.996 42.496C216.081 42.624 216.231 42.6027 216.444 42.432C216.487 42.4747 216.508 42.5387 216.508 42.624C216.508 42.7947 216.465 43.008 216.38 43.264C216.295 43.4773 216.231 43.648 216.188 43.776C216.145 43.9467 216.145 44.032 216.188 44.032C216.273 43.9893 216.316 44.0747 216.316 44.288L216.38 45.184C216.636 45.9947 217.212 46.464 218.108 46.592C218.193 46.592 218.279 46.6133 218.364 46.656C218.492 46.656 218.599 46.656 218.684 46.656C219.452 46.656 219.857 46.592 219.9 46.464C219.985 46.336 220.092 46.2507 220.22 46.208C220.604 46.1227 220.924 46.0373 221.18 45.952C221.479 45.8667 221.777 45.7387 222.076 45.568C222.588 45.3547 223.079 45.0773 223.548 44.736C224.017 44.3947 224.508 44.0533 225.02 43.712L225.66 43.264C225.703 43.1787 225.703 43.1147 225.66 43.072C225.617 43.0293 225.617 42.9867 225.66 42.944C225.745 42.9013 225.809 42.9013 225.852 42.944C225.937 42.944 226.001 42.9227 226.044 42.88C226.129 42.8373 226.215 42.7733 226.3 42.688C226.385 42.56 226.471 42.4533 226.556 42.368C226.641 42.2827 226.684 42.1973 226.684 42.112C226.727 42.0267 226.791 41.9413 226.876 41.856C227.217 41.5147 227.559 41.152 227.9 40.768C228.284 40.384 228.604 40.0427 228.86 39.744C229.159 39.3173 229.393 39.104 229.564 39.104C229.649 39.104 229.692 39.1467 229.692 39.232C229.692 39.4453 229.543 39.7653 229.244 40.192C228.519 41.2587 227.687 42.304 226.748 43.328C225.809 44.3093 224.785 45.2053 223.676 46.016C222.865 46.5707 221.905 47.0613 220.796 47.488C219.687 47.9147 218.577 48.128 217.468 48.128ZM218.428 37.824C219.068 37.7813 219.9 37.6107 220.924 37.312C221.948 36.9707 222.801 36.5227 223.484 35.968C224.209 35.3707 224.572 34.7093 224.572 33.984C224.572 33.3013 224.209 32.64 223.484 32C222.887 32.4267 222.225 33.0453 221.5 33.856C220.817 34.624 220.199 35.392 219.644 36.16C219.089 36.8853 218.684 37.44 218.428 37.824ZM216.764 55.808C216.551 55.808 216.252 55.68 215.868 55.424C215.484 55.2107 215.143 54.9333 214.844 54.592C214.545 54.2933 214.396 54.0587 214.396 53.888C214.396 53.76 214.673 53.568 215.228 53.312C215.825 53.056 216.444 52.8 217.084 52.544C217.724 52.288 218.151 52.096 218.364 51.968V52.096C218.364 52.224 218.279 52.416 218.108 52.672C217.937 52.928 217.788 53.0987 217.66 53.184L217.724 53.568L217.66 54.208C217.575 54.3787 217.468 54.6773 217.34 55.104C217.255 55.5733 217.063 55.808 216.764 55.808ZM229.436 26.944C229.009 26.5173 228.732 26.2613 228.604 26.176C228.476 26.0907 228.305 25.9627 228.092 25.792C228.135 25.7067 228.092 25.5573 227.964 25.344C227.836 25.1307 227.708 25.0027 227.58 24.96C227.58 24.8747 227.58 24.896 227.58 25.024C227.58 25.1093 227.559 25.1307 227.516 25.088L226.748 24.704L226.556 24.512C226.556 24.512 226.535 24.512 226.492 24.512C226.492 24.512 226.513 24.4907 226.556 24.448H226.428C226.343 24.32 226.215 24.2133 226.044 24.128C225.916 24 225.809 23.872 225.724 23.744L225.404 23.616L225.276 23.552L224.828 23.68C224.657 23.808 224.423 23.936 224.124 24.064C223.868 24.1493 223.633 24.256 223.42 24.384H223.292C223.249 24.4267 223.207 24.448 223.164 24.448L222.78 24.64L222.204 24.832C222.119 24.8747 222.012 24.9387 221.884 25.024C221.799 25.0667 221.713 25.1307 221.628 25.216C221.457 25.2587 221.201 25.344 220.86 25.472C220.561 25.5573 220.369 25.6427 220.284 25.728C219.9 25.8987 219.58 26.0267 219.324 26.112C219.111 26.1973 218.577 26.4533 217.724 26.88H217.468C217.297 26.88 217.169 26.8373 217.084 26.752C217.041 26.6667 217.084 26.6027 217.212 26.56L219.324 25.28C220.007 24.8533 220.433 24.5973 220.604 24.512C220.775 24.384 220.945 24.2773 221.116 24.192C221.287 24.064 221.671 23.8293 222.268 23.488L222.652 23.168L222.716 23.232L222.972 23.04C223.1 23.04 223.207 23.0187 223.292 22.976L224.508 22.4L224.572 22.464L224.636 22.4C224.636 22.4 224.721 22.3573 224.892 22.272L225.212 22.08C225.34 22.08 225.575 22.0373 225.916 21.952H226.044C226.044 21.9947 226.023 22.016 225.98 22.016L226.364 21.952C226.236 21.8667 226.215 21.8027 226.3 21.76L226.748 21.888C226.833 21.9307 226.876 21.9947 226.876 22.08C226.919 22.1227 226.983 22.144 227.068 22.144L227.132 22.336C227.132 22.3787 227.153 22.4 227.196 22.4C227.281 22.4 227.324 22.4213 227.324 22.464V22.528L227.452 22.464L227.964 23.04C228.007 23.0827 228.092 23.104 228.22 23.104L228.348 23.296L228.412 23.232V23.552C228.668 23.8933 228.817 24.128 228.86 24.256C228.903 24.384 228.945 24.512 228.988 24.64C229.073 24.768 229.244 25.0027 229.5 25.344L230.396 26.496L230.46 26.56C230.417 26.6453 230.289 26.752 230.076 26.88C229.863 26.9653 229.649 26.9867 229.436 26.944ZM211.688 66.176C211.047 66.176 210.493 66.112 210.023 65.984C209.725 65.8987 209.426 65.792 209.127 65.664C208.829 65.536 208.509 65.3867 208.167 65.216L208.039 65.152C207.869 65.0667 207.677 64.9387 207.463 64.768C207.25 64.64 207.037 64.5333 206.823 64.448C206.653 64.4053 206.418 64.2773 206.119 64.064C205.906 63.8933 205.778 63.7227 205.735 63.552C205.65 63.3813 205.671 63.2747 205.799 63.232C205.842 63.232 205.906 63.2533 205.991 63.296C206.077 63.3813 206.162 63.4453 206.247 63.488C206.333 63.5307 206.439 63.5947 206.567 63.68C206.653 63.7653 206.738 63.8293 206.823 63.872C207.037 63.9573 207.229 64.0213 207.399 64.064C207.527 64.1493 207.677 64.2347 207.847 64.32C208.231 64.4907 208.509 64.5973 208.679 64.64C208.85 64.6827 209.106 64.7253 209.447 64.768L210.279 64.832C211.773 64.9173 213.053 64.7253 214.119 64.256C215.186 63.7867 216.146 63.168 216.999 62.4C217.81 61.6747 218.557 60.928 219.24 60.16C219.367 59.8187 219.517 59.4987 219.688 59.2C219.815 58.9013 219.965 58.688 220.135 58.56C220.178 58.5173 220.221 58.5387 220.263 58.624C220.306 58.752 220.349 58.7947 220.391 58.752C220.477 58.624 220.541 58.4107 220.583 58.112C220.626 57.856 220.69 57.664 220.775 57.536C220.861 57.4507 220.946 57.472 221.031 57.6C221.074 57.728 221.117 57.7707 221.159 57.728C221.245 57.6427 221.287 57.472 221.287 57.216C221.287 57.0027 221.309 56.8533 221.351 56.768C221.821 56.1707 222.226 55.616 222.567 55.104C222.909 54.592 223.293 53.9947 223.719 53.312C223.933 52.9707 224.21 52.5867 224.551 52.16C224.85 51.7333 225.149 51.3067 225.447 50.88C225.789 50.1547 226.173 49.5573 226.599 49.088V48.96C226.599 48.7893 226.642 48.6187 226.727 48.448C226.813 48.2773 226.877 48.128 226.919 48C227.005 47.6587 227.09 47.4453 227.175 47.36C227.261 47.2747 227.325 47.04 227.367 46.656H227.431C227.218 46.144 227.175 45.696 227.303 45.312C227.389 45.1413 227.538 44.9493 227.752 44.736C228.008 44.48 228.2 44.2667 228.328 44.096C228.413 43.8827 228.434 43.7547 228.392 43.712V43.52C228.392 43.2213 228.456 42.9653 228.584 42.752C228.754 42.5387 228.904 42.2827 229.032 41.984C229.074 41.8133 229.16 41.728 229.288 41.728H229.48C229.565 41.728 229.608 41.664 229.608 41.536C229.608 41.4507 229.586 41.344 229.544 41.216C229.544 41.0453 229.522 40.8747 229.48 40.704C229.522 40.4053 229.65 40.2133 229.864 40.128H229.992C230.077 39.5733 230.162 39.1893 230.248 38.976C230.333 38.72 230.44 38.5067 230.568 38.336L231.144 37.568L231.336 36.864C231.421 36.6933 231.506 36.5653 231.592 36.48C231.677 36.352 231.762 36.2453 231.848 36.16V36.096C231.89 35.968 231.954 35.8613 232.04 35.776C232.125 35.648 232.189 35.5413 232.232 35.456L232.488 34.944C232.488 34.8587 232.573 34.6667 232.744 34.368C232.914 34.0693 233.021 33.8987 233.064 33.856C233.32 33.3867 233.512 33.0667 233.64 32.896C233.81 32.7253 234.066 32.4267 234.408 32C234.493 31.8293 234.621 31.616 234.792 31.36C235.005 31.0613 235.197 30.784 235.368 30.528L234.344 30.72C234.258 30.7627 234.216 30.8053 234.216 30.848C234.216 30.848 234.173 30.848 234.088 30.848C234.002 30.8907 233.874 30.9333 233.704 30.976C233.533 31.0187 233.405 31.04 233.32 31.04C233.192 31.04 233.021 31.04 232.808 31.04C232.594 30.9973 232.381 30.976 232.168 30.976C232.125 30.976 232.082 30.9333 232.04 30.848C231.997 30.7627 231.933 30.7413 231.848 30.784C231.805 30.784 231.72 30.8267 231.592 30.912C231.464 30.9973 231.357 31.0613 231.272 31.104C231.229 31.104 231.186 31.104 231.144 31.104C231.101 31.0613 231.058 31.0613 231.016 31.104C230.973 31.104 230.909 31.1253 230.824 31.168C230.781 31.2107 230.717 31.2533 230.632 31.296C230.418 31.3387 230.184 31.4027 229.928 31.488C229.672 31.5307 229.394 31.616 229.096 31.744H228.968C228.84 31.744 228.776 31.68 228.776 31.552C228.776 31.296 228.904 31.1467 229.16 31.104C229.458 31.0187 229.821 30.8907 230.248 30.72C230.674 30.5493 231.101 30.4213 231.528 30.336C231.656 30.336 231.762 30.3147 231.848 30.272C231.976 30.2293 232.082 30.208 232.168 30.208C232.296 30.208 232.402 30.1867 232.488 30.144C232.616 30.1013 232.744 30.08 232.872 30.08C232.957 29.9947 233.021 29.952 233.064 29.952C233.405 29.952 233.746 29.8667 234.088 29.696C234.429 29.4827 234.813 29.2693 235.24 29.056C235.496 28.9707 235.73 28.8 235.944 28.544C236.2 28.288 236.37 28.1387 236.456 28.096C236.541 28.0107 236.605 27.9253 236.648 27.84C236.733 27.7547 236.861 27.6693 237.032 27.584C237.202 27.328 237.416 27.0507 237.672 26.752C237.97 26.4533 238.354 26.2827 238.824 26.24C238.994 26.24 239.293 26.2827 239.72 26.368C240.189 26.4107 240.445 26.432 240.488 26.432C240.658 26.4747 240.744 26.624 240.744 26.88C240.744 27.3067 240.594 27.6053 240.296 27.776C240.21 27.8187 240.168 27.9467 240.168 28.16C240.21 28.3307 240.189 28.4587 240.104 28.544L239.144 29.056C238.888 29.184 238.696 29.312 238.568 29.44C238.482 29.5253 238.29 29.6107 237.992 29.696C237.906 29.696 237.778 29.7173 237.608 29.76C237.48 29.8027 237.352 29.8453 237.224 29.888C237.096 30.144 236.946 30.3573 236.776 30.528C236.648 30.656 236.477 30.912 236.264 31.296C235.837 31.9787 235.624 32.384 235.624 32.512C235.624 32.5973 235.56 32.7467 235.432 32.96C235.389 33.0027 235.346 33.1093 235.304 33.28C235.261 33.408 235.218 33.5147 235.176 33.6L234.28 34.944C234.28 34.9867 234.194 35.0933 234.024 35.264C233.853 35.392 233.746 35.4987 233.704 35.584C233.661 35.6693 233.64 35.7333 233.64 35.776C233.682 35.8187 233.704 35.8613 233.704 35.904C233.704 36.032 233.64 36.1173 233.512 36.16C233.426 36.2027 233.384 36.2453 233.384 36.288C233.341 36.3307 233.298 36.352 233.256 36.352C233.256 36.3093 233.213 36.3307 233.128 36.416C233.085 36.4587 233.042 36.5867 233 36.8C233 36.9707 232.978 37.0773 232.936 37.12C232.68 37.5467 232.53 37.9733 232.488 38.4C232.445 38.784 232.274 39.2107 231.976 39.68C231.72 40.2347 231.656 40.512 231.784 40.512C231.912 40.512 231.976 40.512 231.976 40.512C232.573 39.9147 233.426 39.04 234.536 37.888C235.688 36.6933 236.861 35.5627 238.056 34.496C238.184 34.368 238.312 34.1973 238.44 33.984C238.568 33.7707 238.696 33.6213 238.824 33.536C239.122 33.2373 239.442 33.0027 239.784 32.832C240.125 32.6187 240.445 32.384 240.744 32.128C240.957 31.9573 241.149 31.8507 241.32 31.808C241.533 31.7653 241.725 31.68 241.896 31.552C241.981 31.5093 242.002 31.4667 241.96 31.424C241.917 31.3387 241.938 31.2747 242.024 31.232C242.493 30.976 242.749 30.8267 242.792 30.784C242.834 30.7413 243.005 30.6773 243.304 30.592C243.773 30.4213 244.306 30.336 244.904 30.336C245.288 30.336 245.522 30.3573 245.608 30.4C245.821 30.528 246.056 30.6347 246.312 30.72C246.568 30.8053 246.696 31.0613 246.696 31.488C246.696 31.7013 246.717 31.8293 246.76 31.872C246.802 31.872 246.824 32.0213 246.824 32.32C246.824 32.5333 246.781 32.8747 246.696 33.344C246.653 33.8133 246.61 34.176 246.568 34.432L246.312 36.032C246.269 36.16 246.269 36.288 246.312 36.416C246.354 36.544 246.354 36.672 246.312 36.8C246.269 36.8427 246.205 36.9067 246.12 36.992C246.034 37.0773 245.97 37.1627 245.928 37.248C245.629 37.2907 245.416 37.44 245.288 37.696C245.202 37.9093 245.309 37.9947 245.608 37.952C245.565 37.9947 245.48 38.0587 245.352 38.144C245.266 38.2293 245.202 38.3147 245.16 38.4C245.117 38.4427 245.138 38.4853 245.224 38.528C245.309 38.528 245.266 38.6773 245.096 38.976C244.968 39.1893 244.84 39.4667 244.712 39.808C244.584 40.1493 244.456 40.4267 244.328 40.64C244.2 40.8107 244.072 40.9173 243.944 40.96C243.858 41.0027 243.752 41.1093 243.624 41.28C243.581 41.3653 243.56 41.4507 243.56 41.536C243.56 41.6213 243.517 41.7067 243.432 41.792C243.389 41.8773 243.304 41.9413 243.176 41.984C243.09 42.0267 243.005 42.0907 242.92 42.176C241.554 43.7973 239.89 45.2693 237.928 46.592C236.008 47.9147 233.96 48.7467 231.784 49.088C231.656 49.088 231.528 49.088 231.4 49.088C231.314 49.1307 231.229 49.152 231.144 49.152C230.461 49.152 229.928 48.9813 229.544 48.64C229.202 48.2987 228.882 47.936 228.584 47.552C228.498 47.8507 228.413 48.128 228.328 48.384C228.242 48.6827 228.157 48.9813 228.072 49.28C227.986 49.5787 227.922 49.92 227.88 50.304C227.88 50.688 227.773 50.9227 227.559 51.008C227.431 51.0507 227.325 50.9867 227.239 50.816C227.154 50.6453 227.111 50.7947 227.111 51.264C227.197 51.3067 227.218 51.392 227.175 51.52C227.09 51.648 227.047 51.7547 227.047 51.84C227.09 51.9253 227.111 52.0533 227.111 52.224C227.111 52.4373 227.047 52.6293 226.919 52.8C226.749 52.9707 226.621 53.1627 226.535 53.376C226.493 53.504 226.407 53.568 226.279 53.568C226.237 53.568 226.173 53.5467 226.087 53.504C226.002 53.4613 225.938 53.44 225.895 53.44C225.853 53.44 225.831 53.4827 225.831 53.568C225.831 53.6533 225.895 53.952 226.023 54.464C226.023 54.72 225.895 54.848 225.639 54.848H225.447C225.405 55.3173 225.341 55.6587 225.255 55.872C225.17 56.128 225.063 56.32 224.935 56.448L224.487 56.768C224.061 57.1093 223.762 57.6 223.591 58.24C223.549 58.368 223.463 58.4747 223.335 58.56C223.165 58.6453 223.037 58.752 222.951 58.88C222.951 58.9227 222.951 58.944 222.951 58.944C222.909 58.944 222.887 58.9653 222.887 59.008C222.887 59.52 222.674 60.032 222.247 60.544C221.778 61.056 221.309 61.504 220.839 61.888C220.754 62.0587 220.647 62.2293 220.519 62.4C220.391 62.5707 220.242 62.72 220.071 62.848C219.858 63.0613 219.623 63.1893 219.367 63.232C219.069 63.2747 218.791 63.4027 218.535 63.616C218.45 63.6587 218.429 63.7653 218.471 63.936C218.514 64.1493 218.493 64.2773 218.407 64.32C217.426 64.9173 216.317 65.3653 215.079 65.664C213.842 66.0053 212.711 66.176 211.688 66.176ZM231.976 47.872C232.36 47.872 232.914 47.7867 233.64 47.616C234.365 47.4027 235.026 47.1253 235.624 46.784C235.837 46.6987 236.029 46.592 236.2 46.464C236.413 46.2933 236.605 46.1227 236.776 45.952C236.946 45.7813 237.053 45.6107 237.095 45.44C237.266 45.184 237.522 44.9067 237.864 44.608L238.184 44.416C238.354 44.2453 238.525 43.9467 238.696 43.52H238.824C238.994 43.4773 239.101 43.392 239.144 43.264L239.464 43.136C239.464 43.008 239.506 42.9013 239.592 42.816C239.677 42.6453 239.826 42.4533 240.04 42.24C240.253 41.984 240.36 41.7707 240.36 41.6C240.36 41.5573 240.317 41.4933 240.232 41.408C240.274 41.3227 240.36 41.1733 240.488 40.96C240.658 40.704 240.765 40.5333 240.808 40.448L241.192 40.384L241.384 40V39.872C241.938 39.872 242.173 39.6587 242.088 39.232L242.536 38.016C242.621 37.6747 242.749 37.44 242.92 37.312C242.92 37.1413 242.941 37.0347 242.984 36.992C243.026 36.9493 243.069 36.864 243.112 36.736C243.24 36.3947 243.368 35.9467 243.496 35.392C243.666 34.8373 243.752 34.56 243.752 34.56L243.56 34.176C243.56 34.0907 243.496 33.9627 243.368 33.792C243.282 33.6213 243.261 33.472 243.304 33.344C243.389 33.0453 243.538 32.8533 243.752 32.768C244.008 32.6827 244.05 32.6187 243.88 32.576H243.816C243.688 32.576 243.538 32.5973 243.368 32.64C243.24 32.6827 243.069 32.7467 242.856 32.832C242.6 32.9173 242.365 32.9387 242.152 32.896C241.938 32.8533 241.768 32.8747 241.64 32.96C241.213 33.088 240.765 33.3013 240.296 33.6C239.826 33.856 239.314 34.2187 238.76 34.688C238.717 34.7307 238.653 34.816 238.568 34.944C238.482 35.072 238.397 35.1787 238.312 35.264C238.269 35.3067 238.184 35.328 238.056 35.328C237.97 35.328 237.885 35.3707 237.8 35.456C237.757 35.4987 237.757 35.5627 237.8 35.648C237.842 35.7333 237.842 35.8187 237.8 35.904C237.714 35.9467 237.629 35.9893 237.544 36.032C237.458 36.0747 237.373 36.1387 237.288 36.224L237.095 36.544C236.37 37.3547 235.474 38.2507 234.408 39.232C233.384 40.2133 232.509 41.1733 231.784 42.112L241 38.592C241.256 38.464 241.49 38.4 241.704 38.4C241.789 38.3573 241.896 38.4 242.024 38.528C242.066 38.6133 242.024 38.6987 241.896 38.784C241.81 38.8693 241.746 38.8907 241.704 38.848L241.384 38.784C241.341 38.8267 241.256 38.8907 241.128 38.976C241.042 39.0613 240.957 39.104 240.872 39.104L240.552 39.232C240.509 39.2747 240.424 39.296 240.296 39.296C240.168 39.296 240.082 39.3173 240.04 39.36C239.954 39.4027 239.89 39.4453 239.848 39.488C239.805 39.488 239.741 39.5307 239.656 39.616C238.674 40.0427 237.608 40.5333 236.456 41.088C235.304 41.6 234.237 42.112 233.256 42.624C232.018 43.3067 231.165 43.968 230.696 44.608C230.226 45.2053 229.992 45.7387 229.992 46.208C229.992 46.592 230.098 46.9333 230.312 47.232C230.525 47.488 230.781 47.6587 231.08 47.744C231.378 47.8293 231.677 47.872 231.976 47.872Z" fill="url(#paint0_linear_113_3)"/>
</g>
<defs>
<linearGradient id="paint0_linear_113_3" x1="-1" y1="37" x2="247" y2="37" gradientUnits="userSpaceOnUse">
<stop stop-color="white"/>
<stop offset="0.0001" stop-color="#F4BE44"/>
</linearGradient>
<clipPath id="clip0_113_3">
<rect width="247" height="74" fill="white"/>
</clipPath>
</defs>
</svg>
